<svg width="360" height="162" viewBox="0 0 360 162" fill="none" xmlns="http://www.w3.org/2000/svg">
<path d="M0 20C0 8.9543 8.95431 0 20 0H340C351.046 0 360 8.95431 360 20V142C360 153.046 351.046 162 340 162H20C8.95432 162 0 153.046 0 142V20Z" fill="#2A2E62"/>
<g clip-path="url(#clip0_338_2176)">
<path d="M166.371 63.0669C163.183 63.0669 160.464 61.9423 158.216 59.6912C155.966 57.442 154.842 54.7227 154.842 51.5335C154.842 48.3442 155.966 45.625 158.216 43.3738C160.464 41.1246 163.183 40 166.371 40C168.992 40 171.324 40.7821 173.365 42.3463C175.406 43.9105 176.768 45.9161 177.454 48.3594H171.288C170.184 46.5707 168.562 45.6782 166.416 45.6782C164.777 45.6782 163.407 46.2377 162.306 47.3547C161.203 48.4717 160.653 49.8665 160.653 51.5354C160.653 53.2042 161.204 54.5971 162.306 55.716C163.407 56.833 164.779 57.3925 166.416 57.3925C168.412 57.3925 169.975 56.5723 171.109 54.9339H177.409C176.693 57.3183 175.324 59.2706 173.298 60.791C171.272 62.3115 168.963 63.0707 166.373 63.0707L166.371 63.0669Z" fill="white"/>
<path d="M179.91 62.7111V50.9531C179.91 47.4061 180.789 44.7401 182.547 42.9514C184.304 41.1627 186.613 40.2683 189.472 40.2683H189.74V45.9466H189.518C186.986 45.9466 185.719 47.6154 185.719 50.9531V62.7111H179.91Z" fill="white"/>
<path d="M191.306 51.5791C191.306 48.4203 192.401 45.7011 194.591 43.4195C196.78 41.1398 199.468 40 202.656 40C205.634 40 208.294 40.999 210.633 42.9952C212.971 44.9913 214.2 47.6744 214.319 51.0425C214.348 51.9978 214.289 52.9207 214.141 53.815H197.562C197.83 54.9187 198.418 55.7902 199.327 56.4296C200.236 57.0709 201.345 57.3906 202.656 57.3906C204.145 57.3906 205.427 56.9586 206.498 56.0947L213.424 56.1385C212.499 58.1955 211.084 59.8643 209.178 61.145C207.27 62.4256 205.157 63.0669 202.833 63.0669C199.616 63.0669 196.888 61.9499 194.655 59.714C192.42 57.4781 191.304 54.7665 191.304 51.5772L191.306 51.5791ZM197.562 49.1644H208.107C207.66 48.1216 206.953 47.2805 205.984 46.6392C205.016 45.9979 203.966 45.6782 202.834 45.6782C200.303 45.6782 198.545 46.8409 197.562 49.1644Z" fill="white"/>
<path d="M228.084 63.0669C224.896 63.0669 222.177 61.9423 219.929 59.6912C217.679 57.442 216.555 54.7227 216.555 51.5335C216.555 48.3442 217.679 45.625 219.929 43.3738C222.177 41.1246 224.896 40 228.084 40C231.271 40 233.982 41.1246 236.217 43.3757C238.452 45.6269 239.569 48.3461 239.569 51.5354V62.7111H233.759V60.342C233.43 61.0879 232.717 61.7273 231.614 62.2639C230.511 62.8005 229.335 63.0688 228.084 63.0688V63.0669ZM224.017 55.7141C225.118 56.8311 226.49 57.3906 228.127 57.3906C229.765 57.3906 231.121 56.8311 232.194 55.7141C233.267 54.5971 233.803 53.2042 233.803 51.5335C233.803 49.8627 233.267 48.4717 232.194 47.3528C231.121 46.2358 229.765 45.6763 228.127 45.6763C226.49 45.6763 225.118 46.2358 224.017 47.3528C222.914 48.4698 222.364 49.8646 222.364 51.5335C222.364 53.2023 222.915 54.5952 224.017 55.7141Z" fill="white"/>
<path d="M234.803 69.5311H203.614C200.987 69.5311 198.858 71.661 198.858 74.2883V94.9328C198.858 97.5602 200.987 99.6901 203.614 99.6901H234.803C237.429 99.6901 239.558 97.5602 239.558 94.9328V74.2883C239.558 71.661 237.429 69.5311 234.803 69.5311Z" fill="white"/>
<path d="M215.331 76.4538H218.359V92.7711H215.331V83.308L211.462 92.7711H208.923L205.056 83.308V92.7711H202.027V76.4538H205.056L210.205 88.2955L215.331 76.4538Z" fill="#2A2E62"/>
<path d="M236.394 84.8209C236.394 86.1567 236.063 87.4392 235.403 88.6666C234.743 89.894 233.759 90.9158 232.454 91.7322C231.149 92.5485 229.673 92.9557 228.028 92.9557C225.698 92.9557 223.718 92.1489 222.086 90.5314C220.456 88.9159 219.64 86.9426 219.64 84.6115C219.64 82.2805 220.456 80.3072 222.086 78.6916C223.716 77.0761 225.698 76.2673 228.028 76.2673C229.845 76.2673 231.465 76.764 232.886 77.7592C234.307 78.7544 235.313 80.0674 235.903 81.6982H232.57C231.467 80.0522 229.953 79.2282 228.026 79.2282C226.472 79.2282 225.192 79.7382 224.182 80.7544C223.172 81.7724 222.668 83.0588 222.668 84.6115C222.668 86.1643 223.172 87.4526 224.182 88.4687C225.192 89.4868 226.472 89.9948 228.026 89.9948C229.019 89.9948 229.924 89.7627 230.74 89.2965C231.557 88.8303 232.18 88.2099 232.616 87.4316H229.215V84.8209H236.392H236.394Z" fill="#2A2E62"/>
<path d="M124.805 116.677C123.954 116.677 123.23 116.382 122.634 115.792C122.039 115.202 121.74 114.481 121.74 113.631C121.74 112.78 122.039 112.059 122.634 111.469C123.23 110.879 123.952 110.584 124.805 110.584C125.657 110.584 126.385 110.877 126.979 111.465C127.572 112.053 127.869 112.774 127.869 113.633C127.869 114.491 127.572 115.212 126.979 115.8C126.385 116.388 125.661 116.681 124.805 116.681V116.677ZM124.805 115.859C125.434 115.859 125.963 115.644 126.391 115.212C126.819 114.78 127.034 114.253 127.034 113.629C127.034 113.005 126.819 112.478 126.391 112.046C125.963 111.614 125.434 111.399 124.805 111.399C124.175 111.399 123.652 111.614 123.222 112.046C122.79 112.478 122.575 113.005 122.575 113.629C122.575 114.253 122.79 114.782 123.222 115.212C123.654 115.644 124.181 115.859 124.805 115.859Z" fill="#39A8E0"/>
<path d="M131.374 116.609V114.369C131.374 113.518 131.028 113.092 130.336 113.092C129.643 113.092 129.297 113.518 129.297 114.369V116.609H128.464V114.369C128.464 113.676 128.633 113.157 128.974 112.807C129.314 112.459 129.769 112.283 130.336 112.283C130.902 112.283 131.357 112.459 131.697 112.807C132.038 113.155 132.207 113.676 132.207 114.369V116.609H131.374Z" fill="#39A8E0"/>
<path d="M137.185 114.479C137.185 115.086 136.972 115.604 136.546 116.034C136.12 116.462 135.605 116.677 134.998 116.677C134.391 116.677 133.874 116.462 133.446 116.034C133.018 115.606 132.803 115.088 132.803 114.479C132.803 113.87 133.018 113.355 133.446 112.927C133.874 112.498 134.391 112.283 134.998 112.283C135.548 112.283 135.996 112.487 136.343 112.896V110.649H137.185V114.479ZM135 113.092C134.614 113.092 134.29 113.225 134.03 113.492C133.769 113.758 133.638 114.087 133.638 114.479C133.638 114.871 133.767 115.201 134.026 115.467C134.284 115.733 134.608 115.867 135 115.867C135.392 115.867 135.709 115.733 135.97 115.467C136.23 115.201 136.362 114.871 136.362 114.479C136.362 114.087 136.23 113.766 135.966 113.496C135.702 113.225 135.38 113.092 135 113.092Z" fill="#39A8E0"/>
<path d="M138.417 116.038C137.994 115.612 137.783 115.096 137.783 114.489C137.783 113.882 137.992 113.362 138.409 112.93C138.826 112.498 139.337 112.283 139.946 112.283C140.555 112.283 141.03 112.478 141.46 112.868C141.892 113.256 142.118 113.77 142.141 114.403C142.141 114.546 142.133 114.673 142.116 114.786H138.679C138.713 115.104 138.848 115.362 139.082 115.564C139.316 115.766 139.605 115.867 139.946 115.867C140.366 115.867 140.707 115.726 140.967 115.44L141.962 115.448C141.776 115.817 141.502 116.114 141.146 116.339C140.79 116.563 140.397 116.675 139.973 116.675C139.36 116.675 138.843 116.462 138.42 116.036L138.417 116.038ZM138.675 114.105H141.245C141.165 113.81 141.007 113.566 140.773 113.378C140.539 113.189 140.269 113.092 139.969 113.092C139.645 113.092 139.37 113.185 139.139 113.374C138.909 113.56 138.755 113.806 138.675 114.106V114.105Z" fill="#39A8E0"/>
<path d="M145.627 111.764C145.479 111.764 145.357 111.714 145.262 111.616C145.165 111.517 145.117 111.395 145.117 111.254C145.117 111.113 145.165 110.991 145.262 110.892C145.359 110.793 145.48 110.744 145.627 110.744C145.773 110.744 145.888 110.793 145.985 110.892C146.082 110.991 146.129 111.113 146.129 111.254C146.129 111.395 146.082 111.517 145.985 111.616C145.888 111.714 145.77 111.764 145.627 111.764ZM145.21 116.609V112.352H146.044V116.609H145.21Z" fill="#39A8E0"/>
<path d="M151.109 114.479C151.109 115.086 150.896 115.604 150.47 116.034C150.044 116.462 149.528 116.677 148.922 116.677C148.315 116.677 147.797 116.462 147.369 116.034C146.942 115.606 146.727 115.088 146.727 114.479C146.727 113.87 146.942 113.355 147.369 112.927C147.797 112.498 148.315 112.283 148.922 112.283C149.471 112.283 149.92 112.487 150.266 112.896V110.649H151.109V114.479ZM148.922 113.092C148.535 113.092 148.212 113.225 147.952 113.492C147.691 113.758 147.56 114.087 147.56 114.479C147.56 114.871 147.689 115.201 147.948 115.467C148.206 115.733 148.53 115.867 148.922 115.867C149.313 115.867 149.631 115.733 149.892 115.467C150.152 115.201 150.284 114.871 150.284 114.479C150.284 114.087 150.152 113.766 149.888 113.496C149.624 113.225 149.302 113.092 148.922 113.092Z" fill="#39A8E0"/>
<path d="M152.338 116.038C151.915 115.612 151.704 115.096 151.704 114.489C151.704 113.882 151.913 113.362 152.33 112.93C152.746 112.498 153.258 112.283 153.867 112.283C154.476 112.283 154.951 112.478 155.381 112.868C155.811 113.258 156.039 113.77 156.062 114.403C156.062 114.546 156.054 114.673 156.037 114.786H152.6C152.634 115.104 152.769 115.362 153.003 115.564C153.239 115.766 153.526 115.867 153.867 115.867C154.287 115.867 154.628 115.726 154.888 115.44L155.883 115.448C155.697 115.817 155.423 116.114 155.067 116.339C154.711 116.563 154.318 116.675 153.893 116.675C153.281 116.675 152.764 116.462 152.341 116.036L152.338 116.038ZM152.596 114.105H155.166C155.086 113.81 154.928 113.566 154.694 113.378C154.46 113.189 154.19 113.092 153.89 113.092C153.566 113.092 153.29 113.185 153.06 113.374C152.83 113.56 152.676 113.806 152.596 114.106V114.105Z" fill="#39A8E0"/>
<path d="M157.167 111.764C157.019 111.764 156.897 111.714 156.802 111.616C156.705 111.517 156.657 111.395 156.657 111.254C156.657 111.113 156.705 110.991 156.802 110.892C156.899 110.793 157.021 110.744 157.167 110.744C157.313 110.744 157.428 110.793 157.525 110.892C157.622 110.991 157.669 111.113 157.669 111.254C157.669 111.395 157.622 111.517 157.525 111.616C157.428 111.714 157.31 111.764 157.167 111.764ZM156.75 116.609V112.352H157.584V116.609H156.75Z" fill="#39A8E0"/>
<path d="M160.46 116.677C159.853 116.677 159.336 116.462 158.908 116.034C158.48 115.606 158.265 115.088 158.265 114.479C158.265 113.87 158.48 113.355 158.908 112.927C159.336 112.498 159.853 112.283 160.46 112.283C161.066 112.283 161.584 112.498 162.008 112.927C162.434 113.355 162.647 113.872 162.647 114.479V116.609H161.814V115.937C161.711 116.146 161.534 116.323 161.281 116.464C161.028 116.607 160.755 116.677 160.46 116.677ZM159.493 115.463C159.758 115.733 160.081 115.867 160.467 115.867C160.853 115.867 161.175 115.733 161.434 115.467C161.692 115.201 161.822 114.871 161.822 114.479C161.822 114.087 161.692 113.758 161.434 113.492C161.175 113.225 160.853 113.092 160.467 113.092C160.081 113.092 159.75 113.225 159.49 113.492C159.229 113.758 159.098 114.087 159.098 114.479C159.098 114.871 159.229 115.193 159.493 115.463Z" fill="#39A8E0"/>
<path d="M164.869 116.677C164.403 116.677 164.01 116.557 163.686 116.316C163.363 116.074 163.201 115.747 163.201 115.332H164.002C164.002 115.513 164.086 115.659 164.253 115.766C164.42 115.874 164.632 115.928 164.886 115.928C165.141 115.928 165.349 115.876 165.491 115.773C165.632 115.671 165.704 115.536 165.704 115.364C165.704 115.193 165.621 115.054 165.453 114.965C165.286 114.873 165.082 114.805 164.845 114.755C164.607 114.708 164.367 114.651 164.129 114.586C163.892 114.521 163.688 114.398 163.521 114.215C163.353 114.034 163.27 113.789 163.27 113.482C163.27 113.13 163.42 112.843 163.72 112.618C164.021 112.394 164.396 112.282 164.845 112.282C165.294 112.282 165.672 112.396 165.963 112.622C166.256 112.849 166.401 113.161 166.401 113.558H165.6C165.6 113.4 165.524 113.271 165.373 113.17C165.223 113.071 165.041 113.022 164.824 113.022C164.607 113.022 164.441 113.069 164.304 113.166C164.167 113.263 164.101 113.387 164.101 113.541C164.101 113.695 164.183 113.813 164.348 113.895C164.512 113.977 164.713 114.042 164.953 114.087C165.191 114.133 165.43 114.192 165.668 114.262C165.906 114.333 166.11 114.46 166.277 114.645C166.444 114.83 166.53 115.075 166.536 115.381C166.541 115.802 166.389 116.122 166.081 116.342C165.771 116.563 165.368 116.675 164.867 116.675L164.869 116.677Z" fill="#39A8E0"/>
<path d="M171.055 116.677C170.589 116.677 170.195 116.557 169.872 116.316C169.548 116.074 169.387 115.747 169.387 115.332H170.188C170.188 115.513 170.271 115.659 170.439 115.766C170.606 115.874 170.817 115.928 171.072 115.928C171.327 115.928 171.534 115.876 171.677 115.773C171.818 115.671 171.89 115.536 171.89 115.364C171.89 115.193 171.806 115.054 171.639 114.965C171.471 114.873 171.268 114.805 171.03 114.755C170.792 114.708 170.553 114.651 170.315 114.586C170.077 114.521 169.874 114.398 169.706 114.215C169.539 114.034 169.455 113.789 169.455 113.482C169.455 113.13 169.605 112.843 169.906 112.618C170.207 112.394 170.581 112.282 171.03 112.282C171.479 112.282 171.858 112.396 172.149 112.622C172.442 112.849 172.586 113.161 172.586 113.558H171.785C171.785 113.4 171.709 113.271 171.559 113.17C171.409 113.071 171.226 113.022 171.009 113.022C170.792 113.022 170.627 113.069 170.49 113.166C170.353 113.263 170.286 113.387 170.286 113.541C170.286 113.695 170.368 113.813 170.534 113.895C170.697 113.977 170.899 114.042 171.139 114.087C171.376 114.133 171.616 114.192 171.854 114.262C172.092 114.333 172.295 114.46 172.462 114.645C172.63 114.83 172.715 115.075 172.721 115.381C172.727 115.802 172.575 116.122 172.267 116.342C171.956 116.563 171.553 116.675 171.053 116.675L171.055 116.677Z" fill="#39A8E0"/>
<path d="M173.868 116.038C173.446 115.612 173.234 115.096 173.234 114.489C173.234 113.882 173.444 113.362 173.86 112.93C174.277 112.498 174.788 112.283 175.397 112.283C176.006 112.283 176.481 112.478 176.911 112.868C177.343 113.256 177.569 113.77 177.592 114.403C177.592 114.546 177.585 114.673 177.567 114.786H174.13C174.165 115.104 174.3 115.362 174.534 115.564C174.767 115.766 175.057 115.867 175.397 115.867C175.817 115.867 176.158 115.726 176.419 115.44L177.413 115.448C177.227 115.817 176.953 116.114 176.597 116.339C176.242 116.563 175.848 116.675 175.424 116.675C174.811 116.675 174.294 116.462 173.872 116.036L173.868 116.038ZM174.126 114.105H176.696C176.616 113.81 176.458 113.566 176.225 113.378C175.989 113.187 175.72 113.092 175.42 113.092C175.097 113.092 174.821 113.185 174.591 113.374C174.36 113.56 174.206 113.806 174.126 114.106V114.105Z" fill="#39A8E0"/>
<path d="M182.833 113.161H181.914V114.592C181.914 115.364 182.22 115.775 182.833 115.827V116.635C182.294 116.613 181.866 116.432 181.553 116.095C181.239 115.758 181.081 115.26 181.081 114.601V113.163H180.451V112.354H181.081V110.83H181.914V112.354H182.833V113.163V113.161Z" fill="#39A8E0"/>
<path d="M183.817 112.927C184.245 112.498 184.762 112.283 185.369 112.283C185.976 112.283 186.493 112.498 186.921 112.927C187.349 113.355 187.564 113.872 187.564 114.479C187.564 115.086 187.349 115.604 186.921 116.034C186.493 116.462 185.976 116.677 185.369 116.677C184.762 116.677 184.245 116.462 183.817 116.034C183.389 115.606 183.174 115.088 183.174 114.479C183.174 113.87 183.389 113.355 183.817 112.927ZM185.378 113.092C184.987 113.092 184.661 113.225 184.401 113.492C184.14 113.758 184.009 114.087 184.009 114.479C184.009 114.871 184.14 115.193 184.405 115.463C184.669 115.733 184.992 115.867 185.378 115.867C185.765 115.867 186.086 115.733 186.345 115.467C186.603 115.201 186.733 114.871 186.733 114.479C186.733 114.087 186.603 113.758 186.345 113.492C186.086 113.225 185.765 113.092 185.378 113.092Z" fill="#39A8E0"/>
<path d="M188.161 116.609V114.386C188.161 113.705 188.325 113.193 188.65 112.851C188.975 112.508 189.409 112.335 189.947 112.335H190.033V113.144H189.947C189.312 113.144 188.994 113.558 188.994 114.386V116.609H188.161Z" fill="#39A8E0"/>
<path d="M193.325 116.609V114.369C193.325 113.518 192.979 113.092 192.287 113.092C191.594 113.092 191.248 113.518 191.248 114.369V116.609H190.415V114.369C190.415 113.676 190.584 113.157 190.925 112.807C191.265 112.459 191.72 112.283 192.287 112.283C192.854 112.283 193.308 112.459 193.649 112.807C193.989 113.155 194.158 113.676 194.158 114.369V116.609H193.325Z" fill="#39A8E0"/>
<path d="M196.951 116.677C196.344 116.677 195.827 116.462 195.399 116.034C194.971 115.606 194.756 115.088 194.756 114.479C194.756 113.87 194.971 113.355 195.399 112.927C195.827 112.498 196.344 112.283 196.951 112.283C197.558 112.283 198.075 112.498 198.499 112.927C198.925 113.355 199.138 113.872 199.138 114.479V116.609H198.305V115.937C198.203 116.146 198.026 116.323 197.773 116.464C197.52 116.607 197.246 116.677 196.951 116.677ZM195.985 115.463C196.249 115.733 196.572 115.867 196.959 115.867C197.345 115.867 197.666 115.733 197.925 115.467C198.183 115.201 198.313 114.871 198.313 114.479C198.313 114.087 198.183 113.758 197.925 113.492C197.666 113.225 197.345 113.092 196.959 113.092C196.572 113.092 196.241 113.225 195.981 113.492C195.72 113.758 195.589 114.087 195.589 114.479C195.589 114.871 195.72 115.193 195.985 115.463Z" fill="#39A8E0"/>
<path d="M204.481 112.283C205.037 112.283 205.484 112.46 205.822 112.811C206.159 113.163 206.328 113.682 206.328 114.369V116.609H205.495V114.369C205.495 113.518 205.157 113.092 204.481 113.092C203.806 113.092 203.469 113.518 203.469 114.369V116.609H202.634V114.369C202.634 113.518 202.298 113.092 201.622 113.092C200.947 113.092 200.609 113.518 200.609 114.369V116.609H199.775V114.369C199.775 113.682 199.945 113.163 200.281 112.811C200.62 112.459 201.065 112.283 201.622 112.283C202.298 112.283 202.775 112.548 203.053 113.075C203.33 112.548 203.808 112.283 204.483 112.283H204.481Z" fill="#39A8E0"/>
<path d="M209.349 114.479C209.349 113.872 209.562 113.355 209.988 112.927C210.414 112.498 210.929 112.283 211.536 112.283C212.143 112.283 212.66 112.498 213.09 112.927C213.52 113.355 213.733 113.872 213.733 114.479C213.733 115.086 213.518 115.604 213.09 116.034C212.662 116.462 212.145 116.677 211.536 116.677C210.986 116.677 210.537 116.474 210.191 116.065V118.312H209.349V114.481V114.479ZM211.536 115.867C211.922 115.867 212.246 115.733 212.506 115.467C212.767 115.201 212.898 114.871 212.898 114.479C212.898 114.087 212.769 113.758 212.51 113.492C212.251 113.225 211.926 113.092 211.536 113.092C211.146 113.092 210.827 113.225 210.566 113.492C210.305 113.758 210.174 114.087 210.174 114.479C210.174 114.871 210.305 115.193 210.57 115.463C210.834 115.733 211.156 115.867 211.536 115.867Z" fill="#39A8E0"/>
<path d="M214.328 116.609V114.386C214.328 113.705 214.492 113.193 214.817 112.851C215.144 112.508 215.576 112.335 216.114 112.335H216.2V113.144H216.114C215.479 113.144 215.161 113.558 215.161 114.386V116.609H214.328Z" fill="#39A8E0"/>
<path d="M217.183 112.927C217.611 112.498 218.128 112.283 218.737 112.283C219.346 112.283 219.861 112.498 220.289 112.927C220.717 113.355 220.932 113.872 220.932 114.479C220.932 115.086 220.717 115.604 220.289 116.034C219.861 116.462 219.344 116.677 218.737 116.677C218.13 116.677 217.613 116.462 217.183 116.034C216.753 115.606 216.54 115.088 216.54 114.479C216.54 113.87 216.755 113.355 217.183 112.927ZM218.745 113.092C218.353 113.092 218.028 113.225 217.767 113.492C217.506 113.758 217.375 114.087 217.375 114.479C217.375 114.871 217.506 115.193 217.771 115.463C218.035 115.733 218.358 115.867 218.745 115.867C219.131 115.867 219.452 115.733 219.711 115.467C219.97 115.201 220.099 114.871 220.099 114.479C220.099 114.087 219.97 113.758 219.711 113.492C219.452 113.225 219.131 113.092 218.745 113.092Z" fill="#39A8E0"/>
<path d="M220.693 118.31V117.492C221.266 117.429 221.553 117.025 221.553 116.283V112.342H222.386V116.283C222.386 116.93 222.234 117.421 221.932 117.756C221.627 118.091 221.215 118.276 220.693 118.31ZM221.97 111.764C221.821 111.764 221.7 111.714 221.604 111.616C221.507 111.517 221.46 111.395 221.46 111.254C221.46 111.113 221.507 110.991 221.604 110.892C221.701 110.793 221.823 110.744 221.97 110.744C222.116 110.744 222.23 110.793 222.327 110.892C222.424 110.991 222.472 111.113 222.472 111.254C222.472 111.395 222.424 111.517 222.327 111.616C222.23 111.714 222.112 111.764 221.97 111.764Z" fill="#39A8E0"/>
<path d="M223.633 116.038C223.211 115.612 223 115.096 223 114.489C223 113.882 223.209 113.362 223.626 112.93C224.042 112.498 224.554 112.283 225.163 112.283C225.771 112.283 226.247 112.478 226.677 112.868C227.109 113.256 227.335 113.77 227.358 114.403C227.358 114.546 227.35 114.673 227.333 114.786H223.896C223.93 115.104 224.065 115.362 224.299 115.564C224.535 115.766 224.822 115.867 225.163 115.867C225.583 115.867 225.924 115.726 226.184 115.44L227.181 115.448C226.994 115.817 226.721 116.114 226.363 116.339C226.005 116.563 225.614 116.675 225.189 116.675C224.577 116.675 224.059 116.462 223.637 116.036L223.633 116.038ZM223.892 114.105H226.462C226.382 113.81 226.224 113.566 225.99 113.378C225.754 113.187 225.486 113.092 225.186 113.092C224.862 113.092 224.586 113.185 224.356 113.374C224.126 113.56 223.972 113.806 223.892 114.106V114.105Z" fill="#39A8E0"/>
<path d="M230.046 113.161H229.127V114.592C229.127 115.364 229.433 115.775 230.046 115.827V116.635C229.505 116.613 229.079 116.432 228.765 116.095C228.45 115.758 228.294 115.26 228.294 114.601V113.163H227.664V112.354H228.294V110.83H229.127V112.354H230.046V113.163V113.161Z" fill="#39A8E0"/>
<path d="M231.027 112.927C231.455 112.498 231.972 112.283 232.581 112.283C233.189 112.283 233.705 112.498 234.133 112.927C234.561 113.355 234.776 113.872 234.776 114.479C234.776 115.086 234.561 115.604 234.133 116.034C233.705 116.464 233.188 116.677 232.581 116.677C231.974 116.677 231.457 116.462 231.027 116.034C230.599 115.606 230.384 115.088 230.384 114.479C230.384 113.87 230.599 113.355 231.027 112.927ZM232.588 113.092C232.197 113.092 231.871 113.225 231.611 113.492C231.35 113.758 231.219 114.087 231.219 114.479C231.219 114.871 231.35 115.193 231.614 115.463C231.879 115.733 232.202 115.867 232.588 115.867C232.974 115.867 233.296 115.733 233.555 115.467C233.813 115.201 233.943 114.871 233.943 114.479C233.943 114.087 233.813 113.758 233.555 113.492C233.296 113.225 232.974 113.092 232.588 113.092Z" fill="#39A8E0"/>
<path d="M236.954 116.677C236.488 116.677 236.095 116.557 235.771 116.316C235.448 116.074 235.286 115.747 235.286 115.332H236.087C236.087 115.513 236.171 115.659 236.338 115.766C236.505 115.874 236.717 115.928 236.971 115.928C237.226 115.928 237.434 115.876 237.576 115.773C237.719 115.671 237.789 115.536 237.789 115.364C237.789 115.193 237.706 115.054 237.538 114.965C237.371 114.873 237.167 114.805 236.93 114.755C236.692 114.708 236.452 114.651 236.214 114.586C235.977 114.521 235.773 114.398 235.606 114.215C235.438 114.034 235.355 113.789 235.355 113.482C235.355 113.13 235.505 112.843 235.805 112.618C236.106 112.394 236.481 112.282 236.93 112.282C237.378 112.282 237.757 112.396 238.048 112.622C238.341 112.849 238.486 113.161 238.486 113.558H237.685C237.685 113.4 237.609 113.271 237.46 113.17C237.31 113.071 237.127 113.022 236.911 113.022C236.694 113.022 236.528 113.069 236.391 113.166C236.254 113.263 236.188 113.387 236.188 113.541C236.188 113.695 236.27 113.813 236.435 113.895C236.601 113.977 236.8 114.042 237.04 114.087C237.278 114.133 237.515 114.192 237.755 114.262C237.993 114.333 238.196 114.46 238.364 114.645C238.531 114.83 238.617 115.075 238.622 115.381C238.628 115.802 238.476 116.122 238.168 116.342C237.86 116.563 237.455 116.675 236.956 116.675L236.954 116.677Z" fill="#39A8E0"/>
<path d="M138.13 124.551C137.708 124.125 137.497 123.609 137.497 123.002C137.497 122.395 137.706 121.876 138.123 121.444C138.539 121.012 139.051 120.797 139.66 120.797C140.268 120.797 140.744 120.991 141.174 121.381C141.604 121.771 141.832 122.283 141.855 122.917C141.855 123.06 141.847 123.187 141.83 123.299H138.393C138.427 123.617 138.562 123.876 138.796 124.078C139.03 124.279 139.319 124.38 139.66 124.38C140.08 124.38 140.421 124.239 140.681 123.954L141.676 123.962C141.49 124.331 141.216 124.628 140.86 124.852C140.504 125.077 140.111 125.189 139.686 125.189C139.074 125.189 138.557 124.976 138.134 124.55L138.13 124.551ZM138.389 122.618H140.959C140.879 122.323 140.721 122.08 140.487 121.891C140.253 121.703 139.983 121.606 139.683 121.606C139.359 121.606 139.083 121.699 138.853 121.887C138.623 122.074 138.469 122.319 138.389 122.62V122.618Z" fill="#39A8E0"/>
<path d="M147.095 121.674H146.177V123.105C146.177 123.878 146.483 124.289 147.095 124.34V125.149C146.557 125.126 146.129 124.945 145.815 124.609C145.501 124.272 145.343 123.773 145.343 123.115V121.676H144.714V120.867H145.343V119.343H146.177V120.867H147.095V121.676V121.674Z" fill="#39A8E0"/>
<path d="M147.624 125.122V122.9C147.624 122.218 147.788 121.707 148.113 121.364C148.438 121.022 148.872 120.848 149.41 120.848H149.496V121.657H149.41C148.775 121.657 148.457 122.072 148.457 122.9V125.122H147.624Z" fill="#39A8E0"/>
<path d="M152.032 125.189C151.425 125.189 150.908 124.974 150.48 124.546C150.052 124.118 149.837 123.6 149.837 122.991C149.837 122.382 150.052 121.866 150.48 121.438C150.908 121.01 151.425 120.795 152.032 120.795C152.639 120.795 153.156 121.01 153.58 121.438C154.006 121.866 154.219 122.384 154.219 122.991V125.12H153.386V124.449C153.284 124.658 153.107 124.835 152.854 124.976C152.601 125.118 152.327 125.189 152.032 125.189ZM151.066 123.977C151.33 124.247 151.653 124.38 152.04 124.38C152.426 124.38 152.747 124.247 153.006 123.981C153.265 123.714 153.394 123.385 153.394 122.993C153.394 122.601 153.265 122.272 153.006 122.005C152.747 121.739 152.426 121.606 152.04 121.606C151.653 121.606 151.322 121.739 151.062 122.005C150.801 122.272 150.67 122.601 150.67 122.993C150.67 123.385 150.801 123.707 151.066 123.977Z" fill="#39A8E0"/>
<path d="M157.767 125.122V122.883C157.767 122.032 157.421 121.606 156.728 121.606C156.036 121.606 155.69 122.032 155.69 122.883V125.122H154.856V122.883C154.856 122.19 155.026 121.67 155.366 121.32C155.707 120.972 156.161 120.797 156.728 120.797C157.295 120.797 157.75 120.972 158.09 121.32C158.431 121.669 158.6 122.19 158.6 122.883V125.122H157.767Z" fill="#39A8E0"/>
<path d="M160.821 125.189C160.355 125.189 159.962 125.069 159.638 124.827C159.315 124.586 159.153 124.258 159.153 123.844H159.954C159.954 124.024 160.038 124.171 160.205 124.277C160.373 124.386 160.584 124.439 160.839 124.439C161.093 124.439 161.301 124.388 161.443 124.285C161.584 124.182 161.657 124.047 161.657 123.876C161.657 123.705 161.573 123.566 161.405 123.476C161.238 123.385 161.035 123.316 160.797 123.267C160.559 123.219 160.319 123.162 160.082 123.098C159.844 123.033 159.64 122.909 159.473 122.727C159.305 122.546 159.222 122.3 159.222 121.994C159.222 121.642 159.372 121.355 159.673 121.13C159.973 120.905 160.348 120.793 160.797 120.793C161.246 120.793 161.624 120.907 161.915 121.134C162.208 121.36 162.353 121.672 162.353 122.07H161.552C161.552 121.912 161.476 121.783 161.326 121.682C161.175 121.583 160.993 121.533 160.776 121.533C160.559 121.533 160.394 121.581 160.257 121.678C160.12 121.775 160.053 121.899 160.053 122.053C160.053 122.207 160.135 122.325 160.3 122.407C160.464 122.489 160.666 122.553 160.905 122.599C161.143 122.645 161.383 122.704 161.62 122.774C161.858 122.845 162.062 122.972 162.229 123.157C162.396 123.341 162.482 123.587 162.488 123.893C162.493 124.314 162.341 124.633 162.033 124.854C161.723 125.075 161.32 125.187 160.82 125.187L160.821 125.189Z" fill="#39A8E0"/>
<path d="M163.596 125.122V121.674H162.957V120.866H163.611C163.657 120.338 163.828 119.924 164.127 119.623C164.425 119.322 164.833 119.161 165.348 119.138V119.946C165.093 119.975 164.882 120.066 164.718 120.222C164.553 120.378 164.464 120.593 164.446 120.866H165.348V121.674H164.429V125.122H163.596Z" fill="#39A8E0"/>
<path d="M166.162 121.44C166.59 121.012 167.108 120.797 167.715 120.797C168.321 120.797 168.839 121.012 169.267 121.44C169.695 121.868 169.91 122.386 169.91 122.993C169.91 123.6 169.695 124.118 169.267 124.548C168.839 124.978 168.321 125.191 167.715 125.191C167.108 125.191 166.59 124.976 166.162 124.548C165.734 124.119 165.52 123.602 165.52 122.993C165.52 122.384 165.734 121.868 166.162 121.44ZM167.724 121.606C167.332 121.606 167.007 121.739 166.746 122.005C166.486 122.272 166.355 122.601 166.355 122.993C166.355 123.385 166.486 123.707 166.75 123.977C167.015 124.247 167.338 124.38 167.724 124.38C168.11 124.38 168.432 124.247 168.69 123.981C168.949 123.714 169.078 123.385 169.078 122.993C169.078 122.601 168.949 122.272 168.69 122.005C168.432 121.739 168.11 121.606 167.724 121.606Z" fill="#39A8E0"/>
<path d="M170.507 125.122V122.9C170.507 122.218 170.67 121.707 170.996 121.364C171.321 121.022 171.755 120.848 172.293 120.848H172.379V121.657H172.293C171.658 121.657 171.34 122.072 171.34 122.9V125.122H170.507Z" fill="#39A8E0"/>
<path d="M177.467 120.797C178.022 120.797 178.469 120.974 178.808 121.324C179.144 121.676 179.314 122.196 179.314 122.883V125.122H178.481V122.883C178.481 122.032 178.144 121.606 177.469 121.606C176.793 121.606 176.457 122.032 176.457 122.883V125.122H175.624V122.883C175.624 122.032 175.285 121.606 174.612 121.606C173.938 121.606 173.6 122.032 173.6 122.883V125.122H172.767V122.883C172.767 122.196 172.936 121.676 173.273 121.324C173.609 120.972 174.056 120.797 174.614 120.797C175.289 120.797 175.764 121.062 176.044 121.589C176.322 121.062 176.799 120.797 177.474 120.797H177.467Z" fill="#39A8E0"/>
<path d="M182.104 125.189C181.497 125.189 180.98 124.974 180.552 124.546C180.124 124.118 179.909 123.6 179.909 122.991C179.909 122.382 180.124 121.866 180.552 121.438C180.98 121.01 181.497 120.795 182.104 120.795C182.711 120.795 183.228 121.01 183.653 121.438C184.079 121.866 184.292 122.384 184.292 122.991V125.12H183.459V124.449C183.356 124.658 183.179 124.835 182.926 124.976C182.673 125.118 182.399 125.189 182.104 125.189ZM181.14 123.977C181.404 124.247 181.728 124.38 182.114 124.38C182.5 124.38 182.821 124.247 183.08 123.981C183.339 123.714 183.468 123.385 183.468 122.993C183.468 122.601 183.339 122.272 183.08 122.005C182.821 121.739 182.5 121.606 182.114 121.606C181.728 121.606 181.397 121.739 181.136 122.005C180.875 122.272 180.744 122.601 180.744 122.993C180.744 123.385 180.875 123.707 181.14 123.977Z" fill="#39A8E0"/>
<path d="M189.637 120.797C190.192 120.797 190.639 120.974 190.978 121.324C191.314 121.676 191.484 122.196 191.484 122.883V125.122H190.651V122.883C190.651 122.032 190.314 121.606 189.639 121.606C188.963 121.606 188.627 122.032 188.627 122.883V125.122H187.794V122.883C187.794 122.032 187.455 121.606 186.782 121.606C186.108 121.606 185.77 122.032 185.77 122.883V125.122H184.937V122.883C184.937 122.196 185.106 121.676 185.442 121.324C185.779 120.972 186.226 120.797 186.783 120.797C187.459 120.797 187.934 121.062 188.214 121.589C188.492 121.062 188.969 120.797 189.644 120.797H189.637Z" fill="#39A8E0"/>
<path d="M195.104 121.44C195.532 121.012 196.049 120.797 196.656 120.797C197.263 120.797 197.78 121.012 198.208 121.44C198.636 121.868 198.851 122.386 198.851 122.993C198.851 123.6 198.636 124.118 198.208 124.548C197.78 124.978 197.263 125.191 196.656 125.191C196.049 125.191 195.532 124.976 195.104 124.548C194.676 124.119 194.461 123.602 194.461 122.993C194.461 122.384 194.676 121.868 195.104 121.44ZM196.666 121.606C196.274 121.606 195.948 121.739 195.688 122.005C195.427 122.272 195.296 122.601 195.296 122.993C195.296 123.385 195.427 123.707 195.692 123.977C195.956 124.247 196.279 124.38 196.666 124.38C197.052 124.38 197.373 124.247 197.632 123.981C197.89 123.714 198.02 123.385 198.02 122.993C198.02 122.601 197.89 122.272 197.632 122.005C197.373 121.739 197.052 121.606 196.666 121.606Z" fill="#39A8E0"/>
<path d="M202.385 125.122V121.674H201.746V120.866H202.4C202.446 120.338 202.617 119.924 202.916 119.623C203.215 119.322 203.622 119.161 204.137 119.138V119.946C203.882 119.975 203.671 120.066 203.507 120.222C203.342 120.378 203.253 120.593 203.235 120.866H204.137V121.674H203.218V125.122H202.385Z" fill="#39A8E0"/>
<path d="M208.35 123.103C208.35 123.796 208.18 124.317 207.838 124.666C207.498 125.014 207.043 125.189 206.476 125.189C205.909 125.189 205.455 125.014 205.114 124.666C204.774 124.317 204.604 123.796 204.604 123.103V120.864H205.438V123.103C205.438 123.954 205.784 124.38 206.476 124.38C207.169 124.38 207.515 123.954 207.515 123.103V120.864H208.348V123.103H208.35Z" fill="#39A8E0"/>
<path d="M211.251 121.674H210.332V123.105C210.332 123.878 210.638 124.289 211.251 124.34V125.149C210.71 125.126 210.284 124.945 209.97 124.609C209.655 124.272 209.499 123.773 209.499 123.115V121.676H208.869V120.867H209.499V119.343H210.332V120.867H211.251V121.676V121.674Z" fill="#39A8E0"/>
<path d="M215.584 123.103C215.584 123.796 215.415 124.317 215.072 124.666C214.732 125.014 214.277 125.189 213.711 125.189C213.144 125.189 212.689 125.014 212.349 124.666C212.008 124.317 211.839 123.796 211.839 123.103V120.864H212.672V123.103C212.672 123.954 213.018 124.38 213.711 124.38C214.403 124.38 214.749 123.954 214.749 123.103V120.864H215.582V123.103H215.584Z" fill="#39A8E0"/>
<path d="M216.221 125.122V122.9C216.221 122.218 216.384 121.707 216.71 121.364C217.037 121.022 217.469 120.848 218.007 120.848H218.092V121.657H218.007C217.371 121.657 217.054 122.072 217.054 122.9V125.122H216.221Z" fill="#39A8E0"/>
<path d="M219.077 121.44C219.504 121.012 220.022 120.797 220.631 120.797C221.239 120.797 221.755 121.012 222.183 121.44C222.611 121.868 222.826 122.386 222.826 122.993C222.826 123.6 222.611 124.118 222.183 124.548C221.755 124.976 221.237 125.191 220.631 125.191C220.024 125.191 219.506 124.976 219.077 124.548C218.649 124.119 218.434 123.602 218.434 122.993C218.434 122.384 218.649 121.868 219.077 121.44ZM220.638 121.606C220.246 121.606 219.921 121.739 219.66 122.005C219.4 122.272 219.269 122.601 219.269 122.993C219.269 123.385 219.4 123.707 219.664 123.977C219.929 124.247 220.252 124.38 220.638 124.38C221.024 124.38 221.346 124.247 221.604 123.981C221.863 123.714 221.992 123.385 221.992 122.993C221.992 122.601 221.863 122.272 221.604 122.005C221.346 121.739 221.024 121.606 220.638 121.606Z" fill="#39A8E0"/>
<path d="M145.183 99.4351H139.286V67.6662H145.183V99.4351Z" fill="#39A8E0"/>
<path d="M159.383 99.7985C156.147 99.7985 153.387 98.6568 151.104 96.3714C148.82 94.0879 147.679 91.3268 147.679 88.0881C147.679 84.8494 148.82 82.0902 151.104 79.8067C153.387 77.5232 156.147 76.3796 159.383 76.3796C162.618 76.3796 165.37 77.5213 167.64 79.8067C169.907 82.0921 171.043 84.8513 171.043 88.0881V99.4332H165.146V97.0279C164.813 97.7853 164.086 98.4342 162.968 98.9803C161.85 99.5245 160.655 99.7966 159.384 99.7966L159.383 99.7985ZM155.253 92.3335C156.371 93.4676 157.764 94.0347 159.426 94.0347C161.089 94.0347 162.466 93.4676 163.554 92.3335C164.642 91.1993 165.188 89.7855 165.188 88.09C165.188 86.3945 164.644 84.9807 163.554 83.8465C162.466 82.7124 161.089 82.1454 159.426 82.1454C157.764 82.1454 156.371 82.7124 155.253 83.8465C154.135 84.9807 153.575 86.3964 153.575 88.09C153.575 89.7836 154.135 91.1993 155.253 92.3335Z" fill="#39A8E0"/>
<path d="M173.763 88.09V67.6681H179.705V78.1055C181.308 76.9561 183.212 76.3815 185.421 76.3815C188.656 76.3815 191.416 77.5232 193.699 79.8086C195.981 82.094 197.125 84.8532 197.125 88.09C197.125 91.3268 195.983 94.0879 193.699 96.3733C191.414 98.6587 188.656 99.8004 185.421 99.8004C182.185 99.8004 179.433 98.6587 177.164 96.3733C174.896 94.0898 173.761 91.3287 173.761 88.09H173.763ZM189.594 83.8465C188.506 82.7124 187.129 82.1453 185.466 82.1453C183.804 82.1453 182.412 82.7124 181.293 83.8465C180.175 84.9806 179.616 86.3964 179.616 88.09C179.616 89.7836 180.175 91.1993 181.293 92.3334C182.412 93.4676 183.804 94.0346 185.466 94.0346C187.129 94.0346 188.506 93.4676 189.594 92.3334C190.682 91.1993 191.228 89.7855 191.228 88.09C191.228 86.3945 190.684 84.9806 189.594 83.8465Z" fill="#39A8E0"/>
<path d="M239.889 107.775H121.74C121.32 107.775 120.979 107.435 120.979 107.014V96.7672C120.979 96.3467 121.32 96.006 121.74 96.006C122.161 96.006 122.501 96.3467 122.501 96.7672V106.253H239.889C240.31 106.253 240.65 106.594 240.65 107.014C240.65 107.435 240.31 107.775 239.889 107.775Z" fill="white"/>
<path d="M121.74 97.5284C120.07 97.5284 118.712 96.1697 118.712 94.499C118.712 92.8282 120.07 91.4695 121.74 91.4695C123.41 91.4695 124.768 92.8282 124.768 94.499C124.768 96.1697 123.41 97.5284 121.74 97.5284ZM121.74 92.9919C120.909 92.9919 120.234 93.6674 120.234 94.499C120.234 95.3305 120.909 96.006 121.74 96.006C122.571 96.006 123.247 95.3305 123.247 94.499C123.247 93.6674 122.571 92.9919 121.74 92.9919Z" fill="white"/>
<path d="M242.866 110.044C241.196 110.044 239.838 108.685 239.838 107.014C239.838 105.344 241.196 103.985 242.866 103.985C244.536 103.985 245.894 105.344 245.894 107.014C245.894 108.685 244.536 110.044 242.866 110.044ZM242.866 105.507C242.035 105.507 241.36 106.183 241.36 107.014C241.36 107.846 242.035 108.521 242.866 108.521C243.697 108.521 244.373 107.846 244.373 107.014C244.373 106.183 243.697 105.507 242.866 105.507Z" fill="white"/>
<path d="M116.829 107.775C116.409 107.775 116.068 107.435 116.068 107.014V103.496C116.068 100.935 115.007 98.4988 113.158 96.811C110.508 94.3943 108.992 90.952 109 87.3669C109 87.2147 109.004 87.0624 109.01 86.9102C109.133 83.6543 110.524 80.6192 112.93 78.3624C115.311 76.1284 118.421 74.8972 121.689 74.8972H121.868C125.134 74.9029 128.238 76.1417 130.606 78.3852C132.994 80.6459 134.367 83.6791 134.475 86.9273C134.481 87.0815 134.483 87.2375 134.483 87.3935C134.483 90.9329 132.994 94.3429 130.395 96.7501C128.503 98.5027 127.416 100.954 127.416 103.471C127.416 103.892 127.076 104.232 126.656 104.232C126.235 104.232 125.895 103.892 125.895 103.471C125.895 100.531 127.158 97.6749 129.362 95.6331C131.651 93.5152 132.963 90.5105 132.963 87.3954C132.963 87.2565 132.961 87.1176 132.955 86.9806C132.86 84.1358 131.656 81.4774 129.562 79.4927C127.475 77.5175 124.744 76.4271 121.866 76.4214H121.708C121.708 76.4214 121.697 76.4214 121.691 76.4214C118.811 76.4214 116.07 77.5042 113.972 79.4737C111.861 81.4546 110.64 84.1168 110.531 86.9692C110.526 87.1024 110.524 87.2375 110.524 87.3726C110.518 90.5295 111.851 93.5608 114.185 95.6902C116.35 97.6654 117.592 100.512 117.592 103.5V107.018C117.592 107.439 117.251 107.779 116.831 107.779L116.829 107.775Z" fill="white"/>
<path d="M121.741 85.7323C121.425 85.7323 121.17 85.4773 121.17 85.1614V81.23C121.17 80.9142 121.425 80.6592 121.741 80.6592C122.056 80.6592 122.311 80.9142 122.311 81.23V85.1614C122.311 85.4773 122.056 85.7323 121.741 85.7323Z" fill="white"/>
<path d="M117.25 88.3317C117.103 88.3317 116.957 88.2765 116.846 88.1642L114.067 85.3841C113.845 85.1614 113.845 84.7999 114.067 84.5773C114.29 84.3546 114.651 84.3546 114.874 84.5773L117.653 87.3574C117.875 87.58 117.875 87.9416 117.653 88.1642C117.541 88.2765 117.396 88.3317 117.25 88.3317Z" fill="white"/>
<path d="M126.233 88.3317C126.087 88.3317 125.94 88.2765 125.83 88.1642C125.607 87.9416 125.607 87.58 125.83 87.3574L128.609 84.5773C128.832 84.3546 129.193 84.3546 129.416 84.5773C129.638 84.7999 129.638 85.1614 129.416 85.3841L126.637 88.1642C126.524 88.2765 126.38 88.3317 126.233 88.3317Z" fill="white"/>
</g>
<defs>
<clipPath id="clip0_338_2176">
<rect width="136.894" height="85.1889" fill="white" transform="translate(109 40)"/>
</clipPath>
</defs>
</svg>
