<svg width="450" height="317" viewBox="0 0 450 317" fill="none" xmlns="http://www.w3.org/2000/svg">
<path d="M392.564 160.553H236.837V19.3473H392.564V160.553ZM238.439 158.951H391.012V20.8996H238.439V158.951Z" fill="#1D1D1D"/>
<path d="M316.704 145.381H252.46V35.8713H316.704V145.381ZM254.012 143.829H315.101V37.4236H254.012V143.829Z" fill="#1D1D1D"/>
<path d="M311.045 43.0317H258.118V49.0906H311.045V43.0317Z" fill="#1D1D1D"/>
<path d="M311.045 71.2729H258.118V74.2273H311.045V71.2729Z" fill="#1D1D1D"/>
<path d="M281.051 69.6205H257.868V50.8431H281.051V69.6205ZM259.42 68.0682H279.449V52.4455H259.42V68.0682Z" fill="#1D1D1D"/>
<path d="M311.095 138.771H287.912V122.948H311.095V138.771ZM289.464 137.169H309.493V124.501H289.464V137.169Z" fill="#1D1D1D"/>
<path d="M311.346 95.0075H257.868V76.2301H311.346V95.0075ZM259.42 93.4552H309.743V77.8324H259.42V93.4552Z" fill="#1D1D1D"/>
<path d="M310.495 51.5442H283.706V53.0964H310.495V51.5442Z" fill="#1D1D1D"/>
<path d="M310.495 55.4999H283.706V57.0521H310.495V55.4999Z" fill="#1D1D1D"/>
<path d="M310.495 59.4558H283.706V61.0081H310.495V59.4558Z" fill="#1D1D1D"/>
<path d="M310.495 63.4114H283.706V64.9636H310.495V63.4114Z" fill="#1D1D1D"/>
<path d="M310.495 67.3672H283.706V68.9195H310.495V67.3672Z" fill="#1D1D1D"/>
<path d="M310.495 104.021H258.319V105.573H310.495V104.021Z" fill="#1D1D1D"/>
<path d="M310.495 107.976H258.319V109.529H310.495V107.976Z" fill="#1D1D1D"/>
<path d="M310.495 111.932H258.319V113.484H310.495V111.932Z" fill="#1D1D1D"/>
<path d="M310.495 115.888H258.319V117.49H310.495V115.888Z" fill="#1D1D1D"/>
<path d="M310.495 119.844H258.319V121.396H310.495V119.844Z" fill="#1D1D1D"/>
<path d="M386.355 154.895H243.046V24.9554H386.355V154.895ZM244.598 153.343H384.752V26.5077H244.598V153.343Z" fill="#1D1D1D"/>
<path d="M379.144 38.5253H325.065V73.5263H379.144V38.5253Z" fill="#204482"/>
<path d="M380.697 75.5793H321.811V36.0216H380.697V75.5793ZM323.413 73.9769H379.145V37.5739H323.413V73.9769Z" fill="#1D1D1D"/>
<path d="M380.146 36.7727H322.612V45.2851H380.146V36.7727Z" fill="#1D1D1D"/>
<path d="M349.401 68.3186H326.217V49.5413H349.401V68.3186ZM327.77 66.7163H347.799V51.0935H327.77V66.7163Z" fill="#1D1D1D"/>
<path d="M376.541 68.3186H353.357V49.5413H376.541V68.3186ZM354.909 66.7163H374.938V51.0935H354.909V66.7163Z" fill="#1D1D1D"/>
<path d="M359.366 42.3808C360.112 42.3808 360.718 41.7755 360.718 41.0288C360.718 40.2822 360.112 39.6769 359.366 39.6769C358.619 39.6769 358.014 40.2822 358.014 41.0288C358.014 41.7755 358.619 42.3808 359.366 42.3808Z" fill="#FAF4E3"/>
<path d="M366.376 42.3808C367.123 42.3808 367.728 41.7755 367.728 41.0288C367.728 40.2822 367.123 39.6769 366.376 39.6769C365.629 39.6769 365.024 40.2822 365.024 41.0288C365.024 41.7755 365.629 42.3808 366.376 42.3808Z" fill="#FAF4E3"/>
<path d="M373.336 42.3808C374.083 42.3808 374.688 41.7755 374.688 41.0288C374.688 40.2822 374.083 39.6769 373.336 39.6769C372.589 39.6769 371.984 40.2822 371.984 41.0288C371.984 41.7755 372.589 42.3808 373.336 42.3808Z" fill="#FAF4E3"/>
<path d="M365.174 92.4537H324.464V118.842H365.174V92.4537Z" fill="#FBBA18"/>
<path d="M366.526 120.545H321.811V90.3507H366.526V120.545ZM323.413 118.992H364.974V91.953H323.413V118.992Z" fill="#1D1D1D"/>
<path d="M365.925 91.1519H322.612V97.5612H365.925V91.1519Z" fill="#1D1D1D"/>
<path d="M350.302 95.4081C350.883 95.4081 351.354 94.9373 351.354 94.3566C351.354 93.7758 350.883 93.3051 350.302 93.3051C349.722 93.3051 349.251 93.7758 349.251 94.3566C349.251 94.9373 349.722 95.4081 350.302 95.4081Z" fill="#FAF4E3"/>
<path d="M355.56 95.4081C356.141 95.4081 356.611 94.9373 356.611 94.3566C356.611 93.7758 356.141 93.3051 355.56 93.3051C354.979 93.3051 354.508 93.7758 354.508 94.3566C354.508 94.9373 354.979 95.4081 355.56 95.4081Z" fill="#FAF4E3"/>
<path d="M360.818 95.4081C361.399 95.4081 361.87 94.9373 361.87 94.3566C361.87 93.7758 361.399 93.3051 360.818 93.3051C360.237 93.3051 359.767 93.7758 359.767 94.3566C359.767 94.9373 360.237 95.4081 360.818 95.4081Z" fill="#FAF4E3"/>
<path d="M115.16 308.769H109.702L119.667 163.657L137.993 161.855L115.16 308.769ZM111.405 307.167H113.808L136.091 163.657L121.119 165.11L111.405 307.167Z" fill="#1D1D1D"/>
<path d="M189.068 308.769H183.61L160.776 161.905L179.103 163.708L189.068 308.769ZM184.962 307.167H187.365L177.601 165.11L162.629 163.657L184.962 307.167Z" fill="#1D1D1D"/>
<path d="M184.711 155.145H83.3135V168.214H184.711V155.145Z" fill="#FAF4E3"/>
<path d="M185.512 169.015H82.5122V154.344H185.512V169.015ZM84.1145 167.413H183.96V155.896H84.1145V167.413Z" fill="#1D1D1D"/>
<path d="M61.2813 208.773C67.1399 229.403 81.1102 247.63 99.5371 258.646C104.344 261.55 112.706 266.257 110.253 273.367C109.502 275.52 107.499 277.073 105.346 277.774C103.192 278.475 100.839 278.425 98.5356 278.224C74.8511 276.121 55.3226 259.447 39.2993 243.273C21.5234 225.397 4.49858 204.717 0.442668 179.881C-0.108135 176.576 -0.358497 173.071 0.993474 170.067C2.34544 167.012 5.90063 164.759 9.05523 165.811C12.8608 167.112 14.1627 172.27 17.9181 173.722C23.1758 175.725 27.1816 169.266 26.8812 164.759C26.4806 159.001 21.0227 153.292 18.519 148.285C14.1126 139.422 13.3114 129.107 14.4631 119.243C17.2672 95.4581 31.1374 73.9768 49.364 58.4041C60.4802 48.9403 73.1486 41.4293 86.418 35.4206C98.5857 29.8625 113.357 22.652 126.927 22.3015C136.992 22.0511 146.055 27.2587 148.559 37.5236C150.611 46.0861 147.857 55.0993 143.802 62.8606C130.582 87.9471 105.496 103.269 86.6182 123.549C66.2886 145.231 52.819 179.08 61.2813 208.773Z" fill="#E5F4FF"/>
<path d="M54.4213 213.38C57.2254 218.437 62.2327 223.595 67.8409 222.243C72.2973 221.141 74.7509 216.234 75.2016 211.677C75.6522 207.121 74.7509 202.514 75.2516 197.957C76.203 189.345 82.0616 182.184 86.6683 174.824C91.275 167.463 94.73 157.999 90.7743 150.288C87.4694 143.929 79.5579 140.724 72.4476 141.826C65.3372 142.927 59.1782 147.634 55.0222 153.543C43.255 170.217 44.7071 195.955 54.4213 213.38Z" fill="#1D1D1D"/>
<path d="M173.195 13.3384C170.641 16.9937 169.94 22.3515 172.744 25.8065C174.647 28.16 177.852 29.2115 180.906 29.2616C183.961 29.3117 186.915 28.4604 189.869 27.6092C198.031 25.2557 206.193 22.8522 214.355 20.4988C216.658 19.8479 219.012 19.1468 220.965 17.7949C222.967 16.4429 224.57 14.3398 224.67 11.9363C224.87 7.7302 220.664 4.7759 216.758 3.22364C201.486 -2.83519 183.009 -0.832274 173.195 13.3384Z" fill="#1D1D1D"/>
<path d="M419.803 232.007C433.173 212.178 444.489 190.447 448.595 165.861C452.101 144.83 449.296 121.746 437.329 104.571C427.014 89.7999 408.237 79.6351 390.961 83.3405C374.387 86.8956 360.717 108.627 363.471 126.604C364.823 135.366 369.831 142.877 373.486 150.839C392.564 192.85 373.236 239.418 357.663 278.475C356.862 280.428 356.161 282.981 357.513 284.534C358.915 286.136 361.368 285.485 363.221 284.684C387.607 274.219 404.732 254.44 419.803 232.007Z" fill="#E5F4FF"/>
<path d="M190.169 129.558H97.3839L90.9746 68.1183L190.169 74.5276V129.558Z" fill="#FAF4E3"/>
<path d="M145.704 147.033H136.892V128.757H145.704V147.033ZM138.494 145.481H144.152V130.359H138.494V145.481Z" fill="#1D1D1D"/>
<path d="M190.92 130.359H96.6328L90.0732 67.2671L190.92 73.7766V130.359ZM98.0849 128.807H189.368V75.2788L91.8759 68.9696L98.0849 128.807Z" fill="#1D1D1D"/>
<path d="M169.039 155.095H112.156V145.731H169.089V155.095H169.039ZM113.708 153.543H167.486V147.334H113.708V153.543Z" fill="#1D1D1D"/>
<path d="M183.56 126.153L103.393 125.101L98.4858 75.7294L181.357 78.934L183.56 126.153ZM104.795 123.549L181.907 124.601L179.854 80.4863L100.238 77.3818L104.795 123.549Z" fill="#1D1D1D"/>
<path d="M176.399 88.0473L107.749 88.3978L106.848 83.8412H176.399V88.0473Z" fill="#204482"/>
<path d="M179.003 120.845H108.1L104.244 81.0872L179.003 82.7396V120.845ZM109.552 119.243H177.451V84.2418L105.997 82.6895L109.552 119.243Z" fill="#1D1D1D"/>
<path d="M177.901 87.9973H105.796V89.5496H177.901V87.9973Z" fill="#1D1D1D"/>
<path d="M141.348 89.2992H139.795V119.193H141.348V89.2992Z" fill="#1D1D1D"/>
<path d="M136.691 92.7543H110.152V94.3065H136.691V92.7543Z" fill="#1D1D1D"/>
<path d="M136.691 98.3623H111.204V99.9646H136.691V98.3623Z" fill="#1D1D1D"/>
<path d="M136.691 103.92H112.255V105.473H136.691V103.92Z" fill="#1D1D1D"/>
<path d="M136.742 109.479H112.807V111.031H136.742V109.479Z" fill="#1D1D1D"/>
<path d="M136.742 115.037H113.858V116.589H136.742V115.037Z" fill="#1D1D1D"/>
<path d="M156.72 99.4138H144.202V92.3035H156.72V99.4138ZM145.804 97.8616H155.118V93.9058H145.804V97.8616Z" fill="#1D1D1D"/>
<path d="M173.044 99.4138H160.576V92.3035H173.044V99.4138ZM162.128 97.8616H171.442V93.9058H162.128V97.8616Z" fill="#1D1D1D"/>
<path d="M156.72 107.826H144.202V100.716H156.72V107.826ZM145.804 106.224H155.118V102.268H145.804V106.224Z" fill="#1D1D1D"/>
<path d="M173.044 107.826H160.576V100.716H173.044V107.826ZM162.128 106.224H171.442V102.268H162.128V106.224Z" fill="#1D1D1D"/>
<path d="M156.72 116.188H144.202V109.078H156.72V116.188ZM145.804 114.636H155.118V110.68H145.804V114.636Z" fill="#1D1D1D"/>
<path d="M173.044 116.188H160.576V109.078H173.044V116.188ZM162.128 114.636H171.442V110.68H162.128V114.636Z" fill="#1D1D1D"/>
<path d="M112.106 87.2962C112.714 87.2962 113.207 86.803 113.207 86.1946C113.207 85.5862 112.714 85.093 112.106 85.093C111.497 85.093 111.004 85.5862 111.004 86.1946C111.004 86.803 111.497 87.2962 112.106 87.2962Z" fill="#FAF4E3"/>
<path d="M115.961 87.2962C116.569 87.2962 117.063 86.803 117.063 86.1946C117.063 85.5862 116.569 85.093 115.961 85.093C115.353 85.093 114.859 85.5862 114.859 86.1946C114.859 86.803 115.353 87.2962 115.961 87.2962Z" fill="#FAF4E3"/>
<path d="M358.514 305.915H87.3691V309.069H358.514V305.915Z" fill="#1D1D1D"/>
<path d="M167.636 120.695C167.636 120.695 161.628 140.574 159.575 160.653C157.522 180.732 157.722 183.036 157.722 183.036C157.722 183.036 146.556 187.993 146.556 194.402C146.556 200.812 145.504 211.177 151.713 214.682C157.922 218.187 159.274 217.486 161.327 215.233C164.432 216.484 167.035 215.583 168.187 213.28C170.941 214.882 173.094 213.831 173.695 211.928C174.246 209.975 170.39 200.611 170.39 200.611L185.713 185.539L174.546 122.748L167.636 120.695Z" fill="#FAF4E3"/>
<path d="M157.973 217.937C156.42 217.937 154.417 217.135 151.313 215.383C145.454 212.028 145.605 203.265 145.705 196.856C145.705 196.005 145.755 195.204 145.755 194.402C145.755 188.243 154.718 183.587 156.921 182.535C156.971 181.083 157.171 176.126 158.774 160.603C160.827 140.674 166.835 120.695 166.886 120.495L167.136 119.744L175.248 122.147L186.514 185.79L171.292 200.812C172.394 203.516 174.997 210.225 174.447 212.178C174.096 213.33 173.295 214.231 172.243 214.632C171.142 215.082 169.84 214.982 168.488 214.381C167.036 216.434 164.382 217.186 161.528 216.184C160.426 217.286 159.375 217.937 157.973 217.937ZM168.187 121.646C167.086 125.452 162.179 143.128 160.376 160.703C158.373 180.132 158.523 182.835 158.523 182.936L158.573 183.486L158.073 183.737C157.973 183.787 147.357 188.594 147.357 194.402C147.357 195.153 147.357 196.005 147.307 196.856C147.207 202.865 147.057 211.127 152.114 213.981C158.223 217.436 159.074 216.535 160.727 214.682L161.077 214.281L161.578 214.482C164.182 215.533 166.435 214.932 167.436 212.929L167.837 212.178L168.588 212.579C169.74 213.23 170.841 213.43 171.642 213.08C172.243 212.829 172.694 212.328 172.894 211.627C173.195 210.576 171.442 205.218 169.589 200.812L169.389 200.311L184.812 185.139L173.896 123.249L168.187 121.646Z" fill="#1D1D1D"/>
<path d="M197.48 206.169H186.915V297.903H197.48V206.169Z" fill="#1D1D1D"/>
<path d="M209.597 212.078H166.485C160.726 212.078 156.069 207.421 156.069 201.663C156.069 195.904 160.726 191.248 166.485 191.248H209.597C215.356 191.248 220.013 195.904 220.013 201.663C220.013 207.421 215.356 212.078 209.597 212.078Z" fill="#1D1D1D"/>
<path d="M168.037 307.617C173.595 307.617 178.102 303.111 178.102 297.553C178.102 291.994 173.595 287.488 168.037 287.488C162.478 287.488 157.972 291.994 157.972 297.553C157.972 303.111 162.478 307.617 168.037 307.617Z" fill="#1D1D1D"/>
<path d="M216.307 307.617C221.866 307.617 226.372 303.111 226.372 297.553C226.372 291.994 221.866 287.488 216.307 287.488C210.749 287.488 206.243 291.994 206.243 297.553C206.243 303.111 210.749 307.617 216.307 307.617Z" fill="#1D1D1D"/>
<path d="M168.538 287.488C168.538 287.488 176.95 287.388 188.166 296.251C199.383 305.114 174.947 298.704 174.947 298.704L168.538 287.488Z" fill="#1D1D1D"/>
<path d="M215.506 287.488C215.506 287.488 207.094 287.388 195.877 296.251C184.661 305.114 209.097 298.704 209.097 298.704L215.506 287.488Z" fill="#1D1D1D"/>
<path d="M192.172 301.108C197.841 301.108 202.437 299.74 202.437 298.053C202.437 296.366 197.841 294.999 192.172 294.999C186.503 294.999 181.907 296.366 181.907 298.053C181.907 299.74 186.503 301.108 192.172 301.108Z" fill="#1D1D1D"/>
<path d="M214.004 67.7177L209.297 66.1654C210.699 66.8664 212.401 67.5174 214.004 67.7177Z" fill="#1D1D1D"/>
<path d="M218.46 66.5159C219.662 65.2641 219.913 63.3613 219.412 61.7089C218.911 60.0565 217.809 58.6545 216.608 57.4527C211.6 52.5456 204.039 50.4926 197.229 52.145C190.42 53.7974 184.661 59.1051 182.408 65.7648C179.554 74.3273 182.308 84.4421 177.701 92.1533C172.894 100.165 162.078 102.418 156.069 109.579C153.566 112.533 152.064 116.939 154.117 120.194C156.32 123.749 161.227 124.1 165.383 124C176.399 123.849 187.515 123.449 198.131 120.495C208.746 117.54 218.911 111.732 225.07 102.619C229.126 96.6599 231.279 89.199 229.727 82.1888C228.175 75.1786 222.366 68.9695 215.206 68.1684L213.954 67.7678C212.351 67.5675 210.649 66.8665 209.197 66.1654L213.954 67.7678C215.706 67.9681 217.309 67.7177 218.46 66.5159Z" fill="#1D1D1D"/>
<path d="M222.016 124.45C222.016 124.45 223.618 136.468 224.069 141.525C224.519 146.583 216.257 167.062 213.003 166.862C209.748 166.662 205.191 132.512 207.294 124.901C209.447 117.24 222.016 124.45 222.016 124.45Z" fill="#FAF4E3"/>
<path d="M213.052 167.613C213.002 167.613 213.002 167.613 212.952 167.613C212.451 167.563 212.051 167.313 211.65 166.712C208.245 161.905 204.59 131.611 206.543 124.6C207.043 122.848 208.045 121.646 209.597 120.995C214.254 119.092 222.065 123.499 222.416 123.699L222.766 123.899L222.816 124.3C222.816 124.4 224.419 136.418 224.869 141.425C225.27 146.232 218.811 162.706 215.005 166.562C214.254 167.263 213.653 167.613 213.052 167.613ZM212.351 122.147C211.55 122.147 210.849 122.247 210.198 122.497C209.146 122.948 208.445 123.799 208.045 125.051C205.892 132.612 210.549 164.158 213.052 166.011C213.152 165.961 213.453 165.861 213.954 165.31C217.409 161.504 223.618 145.731 223.217 141.575C222.816 137.119 221.515 127.054 221.214 124.951C220.062 124.3 215.756 122.147 212.351 122.147Z" fill="#1D1D1D"/>
<path d="M213.754 149.437C213.754 149.437 215.706 145.03 226.973 134.815C238.239 124.601 241.594 116.238 256.165 109.779C270.787 103.32 282.704 96.6599 288.813 96.2593C294.922 95.8086 296.524 97.9617 297.075 98.7128C297.626 99.4639 297.926 104.171 289.664 107.826C281.402 111.481 281.402 112.032 281.402 112.032C281.402 112.032 290.115 114.486 291.266 117.29C292.468 120.094 292.318 129.307 287.611 133.714C282.904 138.12 279.349 137.169 274.742 136.418C272.539 138.02 253.712 149.988 237.889 157.649C224.119 164.308 213.002 166.812 213.002 166.812L213.754 149.437Z" fill="#FAF4E3"/>
<path d="M213.854 167.163C213.503 167.163 213.203 167.163 212.902 167.112L213.103 165.56C223.318 166.962 269.034 139.723 274.242 135.867L274.492 135.667L275.744 135.867C279.9 136.568 282.904 137.069 287.06 133.213C291.467 129.107 291.617 120.294 290.515 117.69C289.764 115.888 284.356 113.785 281.152 112.883L280.601 112.733V112.132C280.601 111.582 280.601 111.081 289.314 107.225C294.321 105.022 295.823 102.468 296.274 101.166C296.624 100.065 296.474 99.3637 296.424 99.2636C295.973 98.6627 294.621 96.7599 288.863 97.1605C284.707 97.461 277.647 100.766 268.734 104.972C265.028 106.724 260.822 108.677 256.466 110.63C246.802 114.886 242.095 120.094 236.687 126.053C233.983 129.057 231.179 132.162 227.474 135.516C216.558 145.381 214.505 149.787 214.455 149.837L213.002 149.186C213.103 148.986 215.156 144.53 226.422 134.315C230.077 131.01 232.831 127.955 235.535 125.001C241.093 118.892 245.85 113.584 255.865 109.178C260.221 107.275 264.377 105.272 268.083 103.57C277.146 99.3137 284.306 95.9087 288.763 95.6083C295.373 95.1576 297.125 97.6112 297.726 98.4124C298.076 98.9131 298.277 100.015 297.926 101.367C297.375 103.37 295.573 106.274 290.015 108.727C286.309 110.38 284.306 111.331 283.255 111.932C285.959 112.833 291.066 114.786 292.018 117.14C293.269 120.144 293.169 129.808 288.162 134.465C283.455 138.821 279.8 138.22 275.494 137.519L274.893 137.269C269.635 140.924 226.272 167.163 213.854 167.163Z" fill="#1D1D1D"/>
<path d="M238.54 127.455C238.54 127.455 240.994 122.748 246.902 120.595C252.811 118.442 261.824 115.337 266.531 118.442C271.238 121.546 266.731 127.054 261.273 129.057C255.815 131.11 245.3 134.515 242.145 134.515C239.091 134.515 238.54 127.455 238.54 127.455Z" fill="#FAF4E3"/>
<path d="M242.195 135.316V133.764C244.999 133.764 254.914 130.609 261.023 128.356C264.578 127.004 267.482 124.3 267.733 121.997C267.883 120.845 267.332 119.894 266.13 119.093C261.574 116.088 252.21 119.493 247.203 121.346L246.652 119.844C251.96 117.941 261.774 114.336 266.981 117.791C269.135 119.193 269.435 120.945 269.285 122.197C268.934 125.452 265.129 128.506 261.574 129.858C256.716 131.611 245.65 135.316 242.195 135.316Z" fill="#1D1D1D"/>
<path d="M283.851 111.517L283.14 110.137L271.924 115.92L272.636 117.3L283.851 111.517Z" fill="#1D1D1D"/>
<path d="M267.582 139.222C265.879 139.222 264.177 138.771 262.775 137.469C258.168 133.263 259.52 130.058 260.722 128.556L261.974 129.508C260.421 131.46 261.072 133.764 263.876 136.318C265.979 138.27 269.434 138.07 274.442 135.717C276.945 134.565 282.504 124.55 282.153 120.795C281.853 117.44 276.345 115.537 276.294 115.537L276.795 114.035C277.046 114.135 283.305 116.238 283.705 120.645C284.056 124.801 278.448 135.616 275.093 137.169C273.741 137.77 270.636 139.222 267.582 139.222Z" fill="#1D1D1D"/>
<path d="M207.194 91.2018L206.443 82.5392L198.932 82.3389L198.231 89.5494C195.026 89.6495 191.872 90.4006 188.867 91.7025C191.02 95.5081 195.277 100.465 202.487 99.564C207.394 98.9631 210.899 97.0102 213.253 95.0073C211.55 93.4551 209.547 92.1532 207.194 91.2018Z" fill="#FAF4E3"/>
<path d="M200.834 100.415C195.727 100.415 191.27 97.5111 188.216 92.0532L187.765 91.3021L188.566 90.9516C191.571 89.6497 194.625 88.9486 197.529 88.7984L198.23 81.5378L207.193 81.7381L207.945 90.6511C210.098 91.6025 212.051 92.8543 213.753 94.4066L214.404 95.0075L213.703 95.6083C210.648 98.2121 206.893 99.8145 202.487 100.365C201.986 100.365 201.385 100.415 200.834 100.415ZM190.018 92.0532C192.272 95.7085 196.177 99.514 202.386 98.7129C206.092 98.2622 209.347 96.9603 212.051 94.9073C210.548 93.6555 208.796 92.654 206.943 91.9029L206.492 91.7027L205.791 83.2403L199.733 83.0901L199.032 90.2505H198.331C195.627 90.4008 192.823 91.0016 190.018 92.0532Z" fill="#1D1D1D"/>
<path d="M213.954 72.3744C215.106 79.7351 211.55 86.495 203.839 86.8455C196.879 87.1459 193.023 80.8367 193.023 73.3758C193.023 65.965 197.881 60.1065 203.839 59.9062C207.244 59.8561 212.652 63.9621 213.954 72.3744Z" fill="#FAF4E3"/>
<path d="M203.339 87.6467C200.685 87.6467 198.281 86.6953 196.379 84.8927C193.725 82.339 192.172 78.1328 192.172 73.3759C192.172 65.6146 197.28 59.3555 203.789 59.1552C208.045 59.055 213.403 64.0123 214.705 72.2242C215.406 76.6306 214.455 80.8368 212.101 83.6909C210.098 86.0944 207.294 87.4464 203.889 87.6467C203.689 87.6467 203.539 87.6467 203.339 87.6467ZM203.99 60.7575C203.94 60.7575 203.94 60.7575 203.889 60.7575C198.231 60.9077 193.825 66.4658 193.825 73.426C193.825 77.7322 195.177 81.5378 197.53 83.7911C199.233 85.4435 201.336 86.1946 203.839 86.0944C206.794 85.9442 209.197 84.7925 210.9 82.7395C212.953 80.2359 213.804 76.4804 213.203 72.5247C211.951 64.7633 207.094 60.7575 203.99 60.7575Z" fill="#1D1D1D"/>
<path d="M193.674 75.7293C195.527 75.7293 197.029 74.4738 197.029 72.9252C197.029 71.3765 195.527 70.1211 193.674 70.1211C191.821 70.1211 190.319 71.3765 190.319 72.9252C190.319 74.4738 191.821 75.7293 193.674 75.7293Z" fill="#FAF4E3"/>
<path d="M173.796 175.325C173.796 175.325 172.143 190.196 183.61 200.211C195.077 210.175 220.263 234.711 233.683 253.388C247.102 272.015 244.949 276.272 249.856 279.076C254.764 281.88 258.669 280.728 262.124 277.624C265.579 274.519 282.404 250.935 270.487 238.016C258.519 225.097 239.241 214.632 230.378 204.617C221.565 194.653 205.842 165.01 205.842 165.01L173.796 175.325Z" fill="#FAF4E3"/>
<path d="M176.75 175.174C176.75 175.174 175.147 189.796 186.264 199.61C197.38 209.424 221.865 233.509 234.884 251.836C247.903 270.163 245.85 274.319 250.607 277.073C255.364 279.827 259.17 278.675 262.525 275.621C265.88 272.566 282.203 249.432 270.636 236.764C259.02 224.096 240.292 213.781 231.73 204.016C223.167 194.202 207.895 165.16 207.895 165.16L176.75 175.174Z" fill="#2361D8"/>
<path d="M255.264 281.429C253.411 281.429 251.508 280.878 249.505 279.727C247.002 278.325 246.15 276.472 244.598 273.217C242.846 269.412 240.142 263.703 233.031 253.839C219.161 234.561 193.424 209.775 183.109 200.812C171.492 190.697 172.944 175.875 173.044 175.274L173.094 174.774L205.641 164.308L206.142 165.811L174.596 175.975C174.446 178.629 174.346 191.098 184.16 199.66C194.525 208.673 220.413 233.609 234.333 252.988C241.544 263.002 244.248 268.761 246.05 272.616C247.552 275.821 248.203 277.273 250.307 278.425C254.412 280.778 258.018 280.328 261.673 277.073C263.726 275.22 273.44 262.401 273.941 250.484C274.141 245.677 272.789 241.671 269.935 238.567C263.776 231.857 255.664 225.948 247.903 220.19C240.843 214.982 234.133 210.025 229.877 205.218C225.12 199.86 218.46 188.894 213.703 180.632L215.055 179.831C219.812 188.043 226.422 198.909 231.078 204.116C235.235 208.823 241.844 213.73 248.854 218.888C256.716 224.696 264.828 230.705 271.137 237.465C274.291 240.87 275.794 245.276 275.543 250.534C274.992 262.902 265.178 275.971 262.725 278.224C260.271 280.378 257.817 281.429 255.264 281.429Z" fill="#1D1D1D"/>
<path d="M346.948 232.908C346.146 235.913 344.694 239.518 342.842 244.025C342.741 244.325 342.591 244.575 342.491 244.876C341.139 248.081 339.437 253.538 337.334 260.048C336.232 263.503 334.98 267.258 333.678 271.164C331.876 276.422 329.873 281.93 327.669 287.188C326.017 291.093 324.265 294.849 322.412 298.304C316.703 308.869 309.944 316.48 302.082 315.879C280.801 314.227 248.104 267.309 248.104 267.309C248.104 267.309 248.905 254.69 252.21 247.68C255.464 240.67 262.374 236.864 262.374 236.864C262.374 236.864 272.339 246.829 276.295 250.434C279.75 249.432 281.502 250.284 281.502 250.284C281.502 250.284 287.711 225.097 303.084 215.934C318.456 206.77 337.934 214.782 343.993 220.04C347.899 223.445 348.6 226.95 346.948 232.908Z" fill="#FAF4E3"/>
<path d="M281.252 250.935C276.445 252.086 272.689 255.942 270.436 260.298C268.183 264.655 267.231 269.612 266.33 274.419C265.679 277.924 265.028 281.529 265.779 285.034C266.53 288.389 268.583 291.293 270.786 293.897C275.994 300.056 282.504 305.063 289.764 308.619C286.91 297.903 286.359 286.587 287.611 275.52C288.863 264.504 291.667 253.689 295.022 243.073C295.973 240.069 296.975 237.014 297.075 233.86C297.175 230.705 296.173 227.35 293.77 225.347C291.166 226.048 289.864 228.953 288.913 231.506C286.359 238.316 283.755 244.125 281.252 250.935Z" fill="#FBBA18"/>
<path d="M302.934 316.731C302.633 316.731 302.333 316.731 301.982 316.68C292.969 315.979 281.002 307.517 266.48 291.494C255.715 279.626 247.503 267.859 247.403 267.709L247.252 267.459V267.158C247.303 266.658 248.104 254.34 251.408 247.229C254.763 240.019 261.623 236.213 261.874 236.063L262.374 235.763L262.775 236.163C262.875 236.263 272.289 245.677 276.345 249.432C278.448 248.882 279.95 248.982 280.801 249.182C281.352 247.229 282.904 241.972 285.658 236.063C291.467 223.595 298.077 217.786 302.533 215.082C317.805 205.969 337.634 213.43 344.344 219.238C350.753 224.747 349.051 230.705 343.092 245.026C341.94 247.83 340.388 252.537 338.636 258.045C331.726 280.177 320.059 316.68 302.934 316.731ZM248.905 267.058C251.408 270.613 282.253 313.576 302.132 315.078C318.506 316.33 330.273 279.626 337.284 257.695C339.036 252.186 340.588 247.43 341.79 244.575C347.949 229.904 348.851 225.247 343.493 220.59C337.033 215.032 318.106 207.872 303.534 216.585C288.613 225.448 282.354 250.184 282.304 250.434L282.053 251.335L281.202 250.935C281.202 250.935 279.55 250.284 276.495 251.135L276.094 251.235L275.744 250.935C272.339 247.78 264.227 239.718 262.224 237.765C260.622 238.767 255.514 242.272 252.911 247.88C249.956 254.24 249.055 265.205 248.905 267.058Z" fill="#1D1D1D"/>
<path d="M215.006 96.76C212.852 99.514 208.346 103.57 200.284 104.521C190.67 105.673 185.963 97.8115 184.261 94.0561C185.763 93.1548 187.265 92.3536 188.867 91.7026C191.021 95.5082 195.277 100.465 202.487 99.5641C207.394 98.9632 210.9 97.0104 213.253 95.0075C213.904 95.5583 214.455 96.1591 215.006 96.76Z" fill="#1D1D1D"/>
<path d="M198.431 105.423C189.518 105.423 185.111 97.8115 183.559 94.3565L183.259 93.7055L183.86 93.355C185.412 92.4036 186.964 91.6025 188.567 90.9515L189.217 90.7012L189.568 91.302C191.771 95.1577 195.727 99.5641 202.387 98.7629C206.443 98.2622 209.948 96.8101 212.752 94.4066L213.303 93.9559L213.803 94.4066C214.454 94.9574 215.055 95.6083 215.656 96.2593L216.107 96.76L215.706 97.2607C213.252 100.415 208.596 104.371 200.434 105.322C199.733 105.373 199.082 105.423 198.431 105.423ZM185.312 94.3565C187.064 97.9617 191.571 104.772 200.183 103.72C207.344 102.869 211.6 99.6142 213.954 96.76C213.703 96.5096 213.453 96.2092 213.202 95.9588C210.248 98.3123 206.643 99.7644 202.537 100.265C196.879 100.966 191.921 98.2622 188.516 92.654C187.465 93.2048 186.363 93.7556 185.312 94.3565Z" fill="#1D1D1D"/>
<path d="M223.017 127.004C223.017 127.004 219.212 132.011 210.249 128.757C210.399 136.768 208.897 153.743 213.103 165.61C202.387 179.731 167.136 182.485 167.136 182.485C167.136 182.485 165.133 150.889 174.096 128.406C166.935 131.01 157.121 124.701 157.121 124.701C157.121 124.701 168.588 103.52 184.311 94.056C186.013 97.8115 190.72 105.673 200.334 104.521C208.396 103.57 212.902 99.514 215.056 96.76C224.569 107.676 223.017 127.004 223.017 127.004Z" fill="#FAF4E3"/>
<path d="M166.384 183.336L166.334 182.535C166.334 182.234 164.482 151.84 172.744 129.608C165.583 131.06 157.021 125.602 156.67 125.352L156.069 124.951L156.42 124.3C156.52 124.1 168.187 102.869 183.91 93.355L184.661 92.9043L185.012 93.7055C186.514 97.0604 191.07 104.822 200.184 103.72C207.795 102.819 212.101 99.1634 214.404 96.2592L215.005 95.5081L215.606 96.2091C220.663 102.018 222.616 110.079 223.367 115.838C224.169 122.047 223.818 126.804 223.768 127.004V127.254L223.618 127.455C223.417 127.655 219.061 132.512 210.399 129.808C210.198 138.32 209.848 154.043 213.854 165.26L214.004 165.66L213.753 166.011C209.197 172.02 199.933 176.726 186.313 180.031C176.199 182.485 167.336 183.186 167.236 183.186L166.384 183.336ZM175.448 127.054L174.797 128.706C166.785 148.786 167.636 176.526 167.887 181.634C173.144 181.133 202.437 177.728 212.251 165.46C208.295 153.993 208.646 138.27 208.846 129.808L208.896 127.705L209.948 128.106C217.409 130.81 221.415 127.555 222.316 126.704C222.466 124.35 223.067 107.976 215.105 98.0618C212.502 101.066 207.945 104.471 200.484 105.372C190.97 106.474 186.013 99.2135 184.06 95.2577C170.641 103.77 160.326 120.895 158.273 124.5C160.526 125.802 168.237 129.808 173.895 127.755L175.448 127.054Z" fill="#1D1D1D"/>
<path d="M210.676 112.646L209.124 112.617L208.757 132.041L210.309 132.07L210.676 112.646Z" fill="#1D1D1D"/>
<path d="M181.124 115.947L179.729 115.266L172.574 129.938L173.969 130.619L181.124 115.947Z" fill="#1D1D1D"/>
<path d="M205.441 74.0769C204.84 73.8766 204.34 73.3759 204.039 72.775C203.789 72.1742 203.739 71.5232 203.939 70.9724L204.94 71.3229C204.84 71.6234 204.84 71.9739 204.991 72.3244C205.141 72.6749 205.441 72.9753 205.792 73.0755L205.441 74.0769Z" fill="#1D1D1D"/>
<path d="M201.535 71.6234C201.135 71.6734 200.834 71.7235 200.534 71.8237C200.234 71.8737 199.983 71.9739 199.683 72.074C199.432 72.1742 199.182 72.2743 198.882 72.4245C198.581 72.5748 198.331 72.725 197.98 72.9253C197.93 72.5247 198.08 72.1241 198.331 71.8237C198.581 71.5232 198.932 71.2729 199.332 71.1226C199.733 70.9724 200.133 70.9724 200.534 71.0225C200.935 71.1226 201.335 71.3229 201.535 71.6234Z" fill="#1D1D1D"/>
<path d="M206.793 70.4216C206.843 70.021 207.093 69.6705 207.444 69.4201C207.744 69.1698 208.145 69.0195 208.546 68.9695C208.946 68.9194 209.397 68.9695 209.747 69.1698C210.098 69.3701 210.448 69.6204 210.548 70.021C210.148 69.9709 209.847 69.9709 209.497 69.9709C209.196 69.9709 208.896 69.9709 208.646 70.021C208.345 70.0711 208.095 70.1212 207.794 70.1712C207.494 70.2213 207.194 70.3214 206.793 70.4216Z" fill="#1D1D1D"/>
<path d="M197.88 70.8223L197.58 69.8208C198.531 69.5705 199.382 68.9696 199.933 68.2686L200.784 68.9195C200.083 69.8208 199.032 70.5218 197.88 70.8223Z" fill="#1D1D1D"/>
<path d="M208.045 68.3185C207.194 68.3185 206.343 68.1182 205.592 67.7176L206.093 66.7662C206.944 67.1668 207.945 67.317 208.897 67.1668L209.097 68.2184C208.746 68.3185 208.396 68.3185 208.045 68.3185Z" fill="#1D1D1D"/>
<path d="M208.846 79.2846C208.496 79.4348 208.145 79.4348 207.795 79.3847C207.594 79.3347 207.444 79.2846 207.244 79.1844C207.144 79.1344 207.044 79.0342 206.943 78.9341C206.843 78.8339 206.793 78.6336 206.743 78.4834C206.743 78.1329 206.843 77.9326 206.943 77.7824C207.044 77.6322 207.194 77.482 207.294 77.3818C207.544 77.1815 207.845 77.0313 208.195 76.9312C208.195 77.3317 208.045 77.6322 207.945 77.8825C207.895 78.0328 207.845 78.1329 207.795 78.2331C207.745 78.3332 207.745 78.4333 207.745 78.3833V78.3332C207.745 78.3332 207.745 78.3833 207.795 78.3833C207.845 78.4333 207.945 78.5335 208.045 78.6336C208.345 78.7838 208.596 78.9841 208.846 79.2846Z" fill="#1D1D1D"/>
<path d="M193.613 70.132C196.301 70.6533 198.906 68.875 199.433 66.1602C199.959 63.4453 198.208 60.8219 195.52 60.3007C192.832 59.7794 190.226 61.5576 189.7 64.2725C189.173 66.9873 190.925 69.6107 193.613 70.132Z" fill="#1D1D1D"/>
<path d="M200.828 63.9159C203.516 64.4372 206.121 62.659 206.648 59.9441C207.174 57.2293 205.422 54.6059 202.735 54.0846C200.047 53.5633 197.441 55.3416 196.915 58.0564C196.388 60.7713 198.14 63.3947 200.828 63.9159Z" fill="#1D1D1D"/>
<path d="M210.042 66.8265C212.73 67.3477 215.336 65.5695 215.862 62.8546C216.389 60.1398 214.637 57.5164 211.949 56.9951C209.261 56.4739 206.656 58.2521 206.129 60.9669C205.603 63.6818 207.355 66.3052 210.042 66.8265Z" fill="#1D1D1D"/>
<path d="M249.406 279.727C245.3 276.722 245.851 268.36 248.204 254.94C250.407 242.172 257.317 236.964 262.675 234.861C267.432 233.009 271.037 236.464 272.289 238.567L270.937 239.368C270.837 239.168 267.933 234.461 263.276 236.313C258.269 238.266 251.859 243.173 249.756 255.241C248.054 265.055 246.552 275.721 250.357 278.475L249.406 279.727Z" fill="#1D1D1D"/>
<path d="M252.86 230.254L251.659 229.203C254.363 226.098 259.32 226.85 259.52 226.85L259.27 228.402C259.27 228.452 255.014 227.851 252.86 230.254Z" fill="#1D1D1D"/>
<path d="M239.191 263.202C239.091 262.702 236.387 250.684 245.8 236.213L247.102 237.064C238.089 250.985 240.693 262.752 240.743 262.852L239.191 263.202Z" fill="#1D1D1D"/>
<path d="M263.176 287.738C263.125 287.388 262.124 278.925 265.779 264.805C269.535 250.284 275.894 249.683 276.144 249.683L276.245 251.235C276.195 251.235 270.687 251.936 267.282 265.205C263.726 278.975 264.728 287.438 264.728 287.538L263.176 287.738Z" fill="#1D1D1D"/>
<path d="M276.445 301.358C276.395 301.108 274.692 295.299 275.443 279.276C276.195 263.253 280.952 249.182 281.002 249.032L282.504 249.533C282.454 249.683 277.747 263.553 276.996 279.326C276.245 295.099 277.897 300.807 277.947 300.858L276.445 301.358Z" fill="#1D1D1D"/>
<path d="M290.866 312.324C290.565 311.823 283.655 299.656 290.766 267.208C298.026 233.96 316.353 220.04 325.016 217.336C332.527 214.982 335.932 214.982 340.238 217.185C344.394 219.339 346.998 222.393 347.098 222.493L345.896 223.495C345.896 223.445 343.392 220.54 339.537 218.537C335.631 216.484 332.627 216.585 325.516 218.788C317.154 221.392 299.478 234.961 292.318 267.459C288.663 284.033 288.863 295.149 289.614 301.508C290.465 308.418 292.168 311.423 292.218 311.473L290.866 312.324Z" fill="#1D1D1D"/>
<path d="M305.487 316.48C303.534 316.28 302.282 314.628 301.181 312.875C299.729 310.522 298.627 305.114 298.277 298.404C298.176 297.102 298.126 295.65 298.126 294.098C298.076 291.744 298.176 289.491 298.427 287.188C298.877 282.481 299.879 277.373 301.631 271.014C302.483 267.859 303.584 264.204 304.986 259.898C305.687 257.644 306.488 255.241 307.34 252.737C308.391 249.583 309.593 246.578 310.995 243.774C312.998 239.668 315.401 235.913 318.055 232.508C323.563 225.598 330.123 220.741 335.631 219.539C342.391 218.087 346.897 222.343 347.098 222.543L345.996 223.695C345.946 223.645 341.84 219.839 335.931 221.091C331.926 221.942 325.466 225.698 319.257 233.509C316.653 236.814 314.35 240.469 312.397 244.475C311.045 247.229 309.843 250.184 308.792 253.288C307.941 255.792 307.189 258.195 306.438 260.449C305.086 264.755 303.985 268.36 303.134 271.515C301.431 277.774 300.43 282.831 299.979 287.438C299.779 289.691 299.679 291.894 299.729 294.198C299.729 295.75 299.779 297.152 299.879 298.454C300.279 306.065 301.531 310.572 302.533 312.224C303.734 314.127 304.636 314.978 305.637 315.078L305.487 316.48Z" fill="#1D1D1D"/>
<path d="M301.882 240.67C301.732 240.62 297.776 239.368 294.521 235.062C291.216 230.655 292.468 225.347 292.518 225.147L294.07 225.548C294.07 225.598 292.919 230.355 295.773 234.16C298.727 238.066 302.282 239.218 302.332 239.218L301.882 240.67Z" fill="#1D1D1D"/>
<path d="M300.18 238.967C300.18 238.967 301.031 240.62 303.084 237.815C305.137 235.011 313.399 223.745 318.056 221.592C322.712 219.439 329.622 215.683 334.68 215.884C339.737 216.084 335.631 215.183 335.631 215.183C335.631 215.183 323.013 210.125 316.603 211.677C310.194 213.23 302.934 215.082 299.228 218.487C295.523 221.892 292.518 223.845 293.019 228.602C293.52 233.359 300.18 238.967 300.18 238.967Z" fill="#1D1D1D"/>
<path d="M290.616 243.674C288.212 240.82 287.011 237.065 287.361 233.309L288.913 233.459C288.613 236.764 289.664 240.119 291.768 242.623L290.616 243.674Z" fill="#1D1D1D"/>
<path d="M286.91 253.288C284.256 250.634 282.804 246.979 282.804 243.274H284.407C284.356 246.578 285.708 249.833 288.062 252.187L286.91 253.288Z" fill="#1D1D1D"/>
<path d="M284.056 264.454C281.252 262.001 279.499 258.446 279.299 254.69L280.851 254.59C281.051 257.895 282.604 261.049 285.057 263.253L284.056 264.454Z" fill="#1D1D1D"/>
<path d="M292.268 246.528C290.916 246.528 289.764 245.427 289.764 244.025C289.764 242.673 290.866 241.521 292.268 241.521C293.62 241.521 294.771 242.623 294.771 244.025C294.721 245.427 293.62 246.528 292.268 246.528ZM292.268 243.123C291.767 243.123 291.367 243.524 291.367 244.025C291.367 244.525 291.767 244.926 292.268 244.926C292.769 244.926 293.169 244.525 293.169 244.025C293.169 243.524 292.769 243.123 292.268 243.123Z" fill="#1D1D1D"/>
<path d="M288.362 255.792C287.01 255.792 285.858 254.69 285.858 253.288C285.858 251.936 286.96 250.785 288.362 250.785C289.714 250.785 290.866 251.886 290.866 253.288C290.866 254.69 289.764 255.792 288.362 255.792ZM288.362 252.387C287.861 252.387 287.461 252.787 287.461 253.288C287.461 253.789 287.861 254.19 288.362 254.19C288.863 254.19 289.263 253.789 289.263 253.288C289.263 252.787 288.863 252.387 288.362 252.387Z" fill="#1D1D1D"/>
<path d="M285.057 267.208C283.705 267.208 282.554 266.107 282.554 264.705C282.554 263.303 283.655 262.201 285.057 262.201C286.409 262.201 287.561 263.303 287.561 264.705C287.561 266.107 286.409 267.208 285.057 267.208ZM285.057 263.804C284.557 263.804 284.156 264.204 284.156 264.705C284.156 265.206 284.557 265.606 285.057 265.606C285.558 265.606 285.959 265.206 285.959 264.705C285.959 264.204 285.558 263.804 285.057 263.804Z" fill="#1D1D1D"/>
<path d="M343.343 244.826H310.395L310.945 243.674C312.948 239.568 315.352 235.813 318.006 232.408L318.256 232.107H347.999L347.749 233.109C346.898 236.163 345.496 239.819 343.593 244.325L343.343 244.826ZM312.948 243.223H342.341C343.893 239.468 345.145 236.363 345.946 233.71H319.057C316.754 236.614 314.701 239.819 312.948 243.223Z" fill="#1D1D1D"/>
<path d="M334.229 271.965H301.332L301.582 270.964C302.433 267.809 303.535 264.154 304.937 259.798L305.087 259.247H338.386L338.035 260.298C336.983 263.553 335.732 267.409 334.38 271.415L334.229 271.965ZM303.385 270.363H333.128C334.28 266.958 335.331 263.703 336.282 260.849H306.289C305.087 264.454 304.186 267.609 303.385 270.363Z" fill="#1D1D1D"/>
<path d="M322.863 299.105H298.277L298.227 298.354C298.127 297.052 298.076 295.6 298.076 294.047C298.026 291.694 298.127 289.441 298.377 287.137L298.427 286.436H328.821L328.371 287.538C326.618 291.694 324.866 295.45 323.063 298.704L322.863 299.105ZM299.779 297.553H321.911C323.413 294.698 324.966 291.494 326.468 288.039H299.929C299.779 290.042 299.679 291.994 299.729 294.047C299.729 295.299 299.729 296.451 299.779 297.553Z" fill="#1D1D1D"/>
<path d="M155.919 184.838L155.118 183.486C158.123 181.684 163.38 179.631 163.581 179.531L164.181 180.983C164.131 180.983 158.824 183.086 155.919 184.838Z" fill="#1D1D1D"/>
<path d="M157.371 208.723C156.37 208.723 155.418 208.373 154.617 207.672C153.866 207.021 153.265 206.069 152.865 204.818C151.713 201.613 152.014 197.807 153.666 194.452C155.418 190.947 158.173 188.794 161.327 186.491L162.228 187.793C159.224 189.946 156.62 191.999 155.068 195.153C153.616 198.108 153.315 201.463 154.317 204.267C154.667 205.268 155.118 205.969 155.669 206.47C156.62 207.321 157.672 207.171 158.173 207.021C159.324 206.67 160.326 205.669 160.626 204.517C161.077 202.815 160.676 200.962 160.326 199.56C160.125 198.759 160.025 198.208 160.075 197.757L161.628 197.958C161.628 198.108 161.728 198.709 161.828 199.159C162.178 200.611 162.679 202.815 162.078 204.868C161.628 206.57 160.226 207.972 158.573 208.473C158.173 208.673 157.772 208.723 157.371 208.723Z" fill="#1D1D1D"/>
<path d="M162.028 215.483L160.526 214.982C160.526 214.932 161.127 213.13 159.975 211.327C158.773 209.424 156.22 208.473 156.22 208.473L156.771 206.971C156.871 207.021 159.825 208.122 161.327 210.476C162.879 212.929 162.078 215.383 162.028 215.483Z" fill="#1D1D1D"/>
<path d="M169.139 213.881L167.636 213.38C167.636 213.28 168.237 211.527 167.086 209.725C165.884 207.822 163.33 206.87 163.33 206.87L163.881 205.368C163.981 205.418 166.935 206.52 168.438 208.873C169.99 211.327 169.189 213.781 169.139 213.881Z" fill="#1D1D1D"/>
<path d="M212.552 167.263C212.552 167.263 229.376 168.715 236.487 168.865C243.597 169.015 268.283 167.513 273.541 170.367C278.798 173.222 277.747 176.226 273.841 183.937C269.936 191.598 257.868 216.635 257.868 216.635C257.868 216.635 257.868 219.789 250.207 219.789C245.099 228.802 244.348 231.557 244.348 231.557L207.745 218.137C208.095 218.287 211.651 214.031 211.951 213.68C214.705 210.826 217.409 207.872 220.263 205.118C228.225 197.257 237.538 191.398 246.602 185.039L227.424 189.996L221.765 190.797C221.765 190.797 217.91 182.535 214.204 178.079C210.549 173.672 204.24 176.777 204.29 173.772C210.349 170.267 212.552 167.263 212.552 167.263Z" fill="#FAF4E3"/>
<path d="M268.934 172.37C264.027 169.616 240.944 171.068 234.334 170.918C227.724 170.768 211.801 168.715 211.801 168.715C211.801 168.715 208.646 171.269 202.638 174.423C202.638 177.327 211.05 174.674 214.455 178.93C217.91 183.236 221.565 190.547 221.565 190.547L225.371 190.797L243.748 186.491C239.491 189.595 235.235 192.55 231.029 195.654C231.93 194.953 240.693 197.407 241.544 197.757C250.858 201.813 253.862 205.619 255.615 206.77C256.716 207.471 256.967 210.776 257.818 209.124C258.519 207.672 260.372 204.066 261.073 202.614C263.777 196.906 266.381 191.148 269.185 185.439C272.89 178.079 273.892 175.124 268.934 172.37Z" fill="#2361D8"/>
<path d="M244.849 232.558L244.048 232.258C210.599 220.04 207.745 218.938 207.444 218.838L207.995 217.336C207.745 217.236 207.494 217.336 207.444 217.336C207.945 217.035 210.048 214.532 210.749 213.731C211.05 213.38 211.25 213.13 211.35 213.08C211.951 212.429 212.552 211.828 213.153 211.177C215.256 208.974 217.459 206.67 219.662 204.467C226.172 198.058 233.683 192.85 240.993 187.843C241.494 187.492 241.995 187.142 242.546 186.791L221.014 192.349L220.614 190.797L250.557 183.086L247.002 185.589C245.299 186.791 243.547 187.993 241.844 189.145C234.634 194.102 227.123 199.259 220.714 205.569C218.51 207.722 216.357 210.025 214.254 212.228C213.653 212.879 213.053 213.48 212.452 214.131C212.402 214.181 212.201 214.432 211.901 214.732C210.649 216.184 209.798 217.135 209.197 217.786C215.055 219.94 239.191 228.752 243.747 230.455C244.298 229.103 245.75 225.848 249.405 219.339L249.656 218.938H250.107C256.716 218.938 257.017 216.535 257.017 216.535V216.384L257.117 216.234C257.217 215.984 269.234 191.148 273.09 183.537C277.146 175.575 277.647 173.472 273.09 171.018C269.284 168.965 253.562 169.316 244.198 169.516C240.943 169.566 238.139 169.666 236.387 169.616C229.376 169.466 211.801 168.114 211.65 168.114L211.751 166.562C211.951 166.562 229.426 167.914 236.387 168.064C238.089 168.114 240.893 168.014 244.098 167.964C254.863 167.713 269.585 167.413 273.791 169.666C279.85 172.971 278.147 176.927 274.442 184.288C270.737 191.598 259.47 214.882 258.569 216.835C258.469 217.686 257.567 220.44 250.557 220.591C245.8 229.053 244.999 231.757 244.999 231.757L244.849 232.558Z" fill="#1D1D1D"/>
<path d="M258.619 216.885L257.117 216.334C257.718 214.632 257.567 208.473 248.955 202.464C240.092 196.255 231.179 196.455 231.079 196.455L231.029 194.903C231.429 194.903 240.543 194.653 249.856 201.212C259.32 207.772 259.37 214.732 258.619 216.885Z" fill="#1D1D1D"/>
<path d="M256.922 209.24L255.52 208.465L249.487 219.375L250.889 220.151L256.922 209.24Z" fill="#1D1D1D"/>
<path d="M247.553 195.404C244.598 193.801 241.293 192.7 237.738 192.099L237.989 190.547C241.694 191.198 245.149 192.349 248.254 194.052L247.553 195.404Z" fill="#1D1D1D"/>
<path d="M262.325 207.021L260.622 204.717C259.02 202.514 255.615 200.011 255.565 199.96L256.516 198.709C256.667 198.809 260.122 201.413 261.874 203.766L263.577 206.069L262.325 207.021Z" fill="#1D1D1D"/>
<path d="M179.053 248.331C179.353 247.029 179.804 245.827 180.505 244.675C182.958 240.469 186.113 236.864 189.668 233.609C198.982 225.147 209.597 215.934 209.597 215.934C209.597 215.934 220.914 211.978 232.18 220.04C243.496 228.101 246.15 231.206 244.448 234.861C242.745 238.516 238.239 243.624 238.239 243.624C238.239 243.624 274.992 246.428 277.396 263.553C278.497 271.565 277.396 279.777 274.842 287.438C272.188 295.249 267.832 300.256 259.67 302.109C252.009 303.862 243.897 302.71 236.436 300.657C234.834 300.206 233.231 299.706 231.629 299.205C217.609 294.448 202.537 288.84 191.721 278.274C186.664 273.367 182.057 267.208 179.904 260.448C178.752 256.743 178.151 252.287 179.053 248.331Z" fill="#FAF4E3"/>
<path d="M273.34 261.55C271.087 245.977 236.837 243.374 236.837 243.374C236.837 243.374 241.043 238.717 242.645 235.362C244.248 232.007 241.744 229.153 231.179 221.842C220.663 214.482 210.098 218.087 210.098 218.087C210.098 218.087 200.234 226.449 191.521 234.21C189.768 235.763 186.964 237.916 186.063 240.069C187.966 240.72 190.219 240.82 192.222 241.321C194.375 241.871 196.478 242.522 198.531 243.274C209.097 247.029 218.811 252.687 229.326 256.643C235.034 258.796 240.943 260.649 246.852 262.251C255.965 264.705 275.293 270.463 275.644 271.565C277.346 265.556 274.241 267.709 273.34 261.55Z" fill="#FBBA18"/>
<path d="M251.708 303.762C247.052 303.762 241.894 302.96 236.186 301.408C234.634 300.958 232.981 300.457 231.329 299.906C216.958 295.049 202.036 289.441 191.12 278.825C185.161 273.067 181.005 266.758 179.103 260.649C178.301 258.045 177.1 252.988 178.251 248.131C178.602 246.729 179.103 245.427 179.754 244.275C182.157 240.219 185.212 236.514 189.067 233.009C198.281 224.646 208.896 215.433 208.996 215.333L209.096 215.233L209.247 215.183C209.747 215.032 221.064 211.177 232.581 219.389C243.597 227.25 247.152 230.805 245.149 235.212C243.897 237.916 241.243 241.271 239.791 243.023C242.795 243.374 249.906 244.275 257.116 246.478C270.035 250.334 277.095 256.092 278.147 263.503C279.199 271.114 278.297 279.476 275.543 287.738C272.639 296.451 267.732 301.108 259.77 302.91C257.267 303.461 254.563 303.762 251.708 303.762ZM179.804 248.531C178.752 253.038 179.904 257.795 180.655 260.198C182.508 266.057 186.513 272.116 192.272 277.724C202.937 288.089 217.709 293.647 231.88 298.454C233.482 299.005 235.084 299.505 236.636 299.906C245.549 302.36 253.01 302.81 259.47 301.358C266.83 299.656 271.337 295.299 274.091 287.188C276.795 279.176 277.646 271.064 276.645 263.703C275.994 259.047 271.988 252.587 256.766 247.98C247.452 245.176 238.339 244.475 238.239 244.475L236.636 244.375L237.688 243.173C237.738 243.123 242.145 238.116 243.797 234.611C245.349 231.256 241.994 228.051 231.779 220.741C221.615 213.48 211.3 216.284 210.048 216.685C208.846 217.736 198.932 226.349 190.269 234.21C186.513 237.615 183.559 241.17 181.256 245.126C180.555 246.128 180.104 247.279 179.804 248.531Z" fill="#1D1D1D"/>
<path d="M275.343 283.082C275.193 278.825 269.936 271.214 256.015 267.559C242.946 264.154 231.079 260.148 212.201 250.534C194.776 241.671 183.91 240.72 183.81 240.72L183.91 239.168C184.361 239.218 195.127 240.119 212.902 249.132C231.68 258.646 243.447 262.652 256.416 266.007C262.875 267.659 268.233 270.413 271.989 273.968C275.043 276.873 276.846 280.177 276.946 283.032L275.343 283.082Z" fill="#1D1D1D"/>
<path d="M268.683 298.554L267.431 297.553C267.431 297.553 268.383 296.351 268.733 294.198C269.184 291.344 268.433 288.139 266.53 284.884C263.125 279.026 251.859 276.422 241.944 274.118C237.938 273.167 234.133 272.316 230.828 271.264C221.865 268.41 205.191 260.649 195.276 256.042C192.072 254.54 189.568 253.388 188.416 252.888C184.711 251.285 180.905 249.883 179.303 251.085L178.352 249.833C180.605 248.081 184.511 249.533 189.017 251.435C190.169 251.936 192.722 253.138 195.927 254.59C205.842 259.197 222.466 266.908 231.329 269.762C234.583 270.814 238.339 271.665 242.345 272.616C253.11 275.12 264.177 277.674 267.932 284.133C273.09 292.946 268.883 298.304 268.683 298.554Z" fill="#1D1D1D"/>
<path d="M238.239 244.425C237.638 244.425 230.929 244.275 220.163 238.767C219.061 238.216 217.96 237.615 216.858 237.065C208.896 232.908 201.436 229.003 195.427 229.754L195.227 228.202C201.686 227.4 209.397 231.456 217.559 235.713C218.661 236.263 219.762 236.864 220.864 237.415C231.58 242.923 238.189 242.873 238.239 242.873V244.425Z" fill="#1D1D1D"/>
<path d="M248.003 264.555L246.551 263.954L248.754 258.646C250.757 253.138 254.162 250.584 256.716 249.382C259.47 248.081 261.723 248.131 261.824 248.131L261.773 249.733C261.423 249.733 253.712 249.733 250.257 259.297L248.003 264.555Z" fill="#1D1D1D"/>
<path d="M277.196 274.819C277.697 274.269 277.947 273.568 277.897 272.817C277.647 270.463 277.396 268.06 277.146 265.706C276.946 263.703 276.846 261.75 275.794 259.998C273.741 256.693 270.436 253.889 267.181 251.886C263.726 249.733 259.52 248.431 255.765 250.584C252.46 252.487 250.056 255.992 249.255 259.697C249.255 259.748 249.255 259.848 249.205 259.898C248.805 260.499 248.705 261.15 248.805 261.851C248.154 262.301 247.603 262.852 247.152 263.553C246.802 264.104 247.252 264.705 247.853 264.755C248.254 264.805 248.654 264.805 249.105 264.755C249.205 264.805 249.305 264.805 249.406 264.805C250.407 265.005 251.408 265.205 252.41 265.406C252.46 265.406 252.51 265.406 252.56 265.406C252.61 265.456 252.66 265.456 252.71 265.506C256.115 267.258 259.971 266.708 263.075 269.161C264.578 270.363 266.03 271.615 267.732 272.566C269.435 273.467 271.237 274.219 272.84 275.32C272.639 275.52 272.489 275.821 272.589 276.121C272.74 276.622 273.09 277.023 273.491 277.373C273.641 277.523 273.841 277.674 273.991 277.874C273.991 277.874 274.041 277.924 274.041 277.974C274.091 278.024 274.092 278.024 274.142 278.074C274.242 278.174 274.292 278.275 274.342 278.425C274.542 278.725 274.843 278.825 275.143 278.775C275.143 278.976 275.193 279.176 275.243 279.376C275.343 279.777 275.844 280.077 276.195 279.927C276.595 279.777 276.846 279.376 276.745 278.976C276.745 278.925 276.695 278.775 276.695 278.775C276.695 278.725 276.695 278.625 276.695 278.575C276.695 278.475 276.695 278.425 276.695 278.325V278.274V278.224C276.745 277.874 276.846 277.573 276.946 277.223C277.046 276.872 277.146 276.522 277.196 276.171C277.246 275.771 277.346 275.32 277.196 274.92C277.246 274.87 277.196 274.819 277.196 274.819Z" fill="#1D1D1D"/>
<path d="M200.484 286.386L194.275 281.579L188.166 275.57L189.117 251.986L202.287 257.494L200.484 286.386ZM195.326 280.428L199.082 283.332L200.684 258.546L190.62 254.34L189.768 274.97L195.326 280.428Z" fill="#1D1D1D"/>
<path d="M229.577 299.556L219.712 295.6L213.253 292.646L213.553 262.452L229.126 269.312L229.577 299.556ZM214.805 291.594L220.313 294.098L227.974 297.152L227.574 270.263L215.106 264.805L214.805 291.594Z" fill="#1D1D1D"/>
<path d="M249.004 303.812L243.597 303.011L243.346 273.067L258.118 277.023L258.869 302.96L249.004 303.812ZM245.199 301.608L249.105 302.209L257.266 301.458L256.616 278.174L244.999 275.07L245.199 301.608Z" fill="#1D1D1D"/>
<path d="M241.444 249.733L240.242 248.731C242.345 246.278 245.4 244.726 248.654 244.475L248.755 246.028C245.951 246.228 243.247 247.58 241.444 249.733Z" fill="#1D1D1D"/>
<path d="M232.781 248.381L231.479 247.48C233.382 244.826 236.286 243.023 239.491 242.522L239.742 244.075C237.038 244.525 234.434 246.128 232.781 248.381Z" fill="#1D1D1D"/>
<path d="M222.967 247.43L221.615 246.578C223.318 243.824 226.122 241.821 229.276 241.12L229.627 242.673C226.923 243.273 224.419 245.076 222.967 247.43Z" fill="#1D1D1D"/>
<path d="M240.192 252.487C239.741 252.487 239.291 252.337 238.89 252.086C238.389 251.736 238.089 251.235 237.989 250.634C237.788 249.433 238.64 248.231 239.841 248.03C240.442 247.93 241.043 248.081 241.544 248.431C242.045 248.782 242.345 249.282 242.445 249.883C242.646 251.085 241.794 252.287 240.593 252.487C240.442 252.437 240.342 252.487 240.192 252.487ZM240.192 249.533C240.142 249.533 240.092 249.533 240.092 249.533C239.741 249.583 239.491 249.933 239.541 250.334C239.591 250.534 239.691 250.684 239.791 250.784C239.942 250.885 240.142 250.935 240.292 250.885C240.643 250.835 240.893 250.484 240.843 250.083C240.793 249.883 240.693 249.733 240.593 249.633C240.492 249.583 240.342 249.533 240.192 249.533Z" fill="#1D1D1D"/>
<path d="M231.78 250.985C231.329 250.985 230.879 250.835 230.478 250.584C229.977 250.234 229.677 249.733 229.577 249.132C229.376 247.93 230.228 246.729 231.429 246.528C232.03 246.428 232.631 246.578 233.132 246.929C233.633 247.279 233.933 247.78 234.033 248.381C234.233 249.583 233.382 250.784 232.18 250.985C232.03 250.985 231.88 250.985 231.78 250.985ZM231.78 248.081C231.73 248.081 231.68 248.081 231.68 248.081C231.329 248.131 231.079 248.481 231.129 248.882C231.179 249.082 231.279 249.232 231.379 249.332C231.529 249.432 231.73 249.483 231.88 249.432C232.23 249.382 232.481 249.032 232.431 248.631C232.381 248.431 232.281 248.281 232.18 248.181C232.08 248.131 231.93 248.081 231.78 248.081Z" fill="#1D1D1D"/>
<path d="M221.615 249.783C220.513 249.783 219.562 248.982 219.412 247.88C219.211 246.678 220.063 245.477 221.264 245.276C222.466 245.076 223.668 245.927 223.868 247.129C224.068 248.331 223.217 249.533 222.015 249.733C221.865 249.783 221.765 249.783 221.615 249.783ZM221.665 246.829C221.615 246.829 221.615 246.829 221.565 246.829C221.214 246.879 220.964 247.229 221.014 247.63C221.064 247.98 221.414 248.231 221.815 248.181C222.166 248.131 222.416 247.78 222.366 247.38C222.266 247.079 221.965 246.829 221.665 246.829Z" fill="#1D1D1D"/>
<path d="M277.347 202.765L292.068 200.211L286.911 214.231L277.347 202.765Z" fill="#204482"/>
<path d="M286.71 212.078L272.54 201.513L288.763 194.502L286.71 212.078ZM275.644 201.863L285.458 209.174L286.86 197.056L275.644 201.863Z" fill="#1D1D1D"/>
<path d="M133.386 248.681L143.401 246.979L139.896 256.493L133.386 248.681Z" fill="#204482"/>
<path d="M139.996 255.491L129.631 247.78L141.448 242.673L139.996 255.491ZM132.785 248.131L138.744 252.537L139.595 245.176L132.785 248.131Z" fill="#1D1D1D"/>
<path d="M163.58 45.235L174.997 52.5957L162.929 58.8048L163.58 45.235Z" fill="#FBBA18"/>
<path d="M164.081 57.4026L160.976 41.3793L176.399 46.7371L164.081 57.4026ZM163.079 43.7327L165.132 54.3982L173.344 47.2879L163.079 43.7327Z" fill="#1D1D1D"/>
<path d="M225.235 35.2205L216.976 32.9617L216.566 34.459L224.825 36.7178L225.235 35.2205Z" fill="#1D1D1D"/>
<path d="M223.215 38.5075L219.969 30.5846L218.486 31.192L221.732 39.1149L223.215 38.5075Z" fill="#1D1D1D"/>
<path d="M224.052 31.8494L222.759 30.9022L217.698 37.8087L218.99 38.7559L224.052 31.8494Z" fill="#1D1D1D"/>
<path d="M371.34 177.867L363.081 175.607L362.671 177.105L370.931 179.364L371.34 177.867Z" fill="#1D1D1D"/>
<path d="M369.311 181.153L366.065 173.229L364.629 173.818L367.875 181.741L369.311 181.153Z" fill="#1D1D1D"/>
<path d="M370.171 174.459L368.879 173.512L363.818 180.418L365.11 181.365L370.171 174.459Z" fill="#1D1D1D"/>
<path d="M159.919 226.455L158.401 226.128L156.599 234.499L158.116 234.825L159.919 226.455Z" fill="#1D1D1D"/>
<path d="M162.479 229.342L161.812 227.94L154.08 231.621L154.748 233.022L162.479 229.342Z" fill="#1D1D1D"/>
<path d="M162.254 232.162L155.078 227.491L154.231 228.792L161.407 233.463L162.254 232.162Z" fill="#1D1D1D"/>
<path d="M268.383 7.47986C265.279 7.47986 265.229 12.3369 268.383 12.3369C271.488 12.3369 271.488 7.47986 268.383 7.47986Z" fill="#1D1D1D"/>
<path d="M159.074 265.957C155.969 265.957 155.919 270.814 159.074 270.814C162.178 270.814 162.178 265.957 159.074 265.957Z" fill="#1D1D1D"/>
<path d="M335.982 197.407C332.877 197.407 332.827 202.264 335.982 202.264C339.137 202.264 339.137 197.407 335.982 197.407Z" fill="#1D1D1D"/>
<path d="M311.146 175.324L307.09 171.769L310.645 167.713L314.701 171.269L311.146 175.324ZM309.293 171.619L310.996 173.071L312.448 171.369L310.745 169.917L309.293 171.619Z" fill="#1D1D1D"/>
<path d="M95.4812 234.06L91.4253 230.505L94.9805 226.449L99.0364 230.004L95.4812 234.06ZM93.6285 230.355L95.331 231.807L96.7831 230.104L95.0806 228.652L93.6285 230.355Z" fill="#1D1D1D"/>
<path d="M98.6359 202.064C101.871 202.064 104.494 199.441 104.494 196.205C104.494 192.969 101.871 190.346 98.6359 190.346C95.4003 190.346 92.7773 192.969 92.7773 196.205C92.7773 199.441 95.4003 202.064 98.6359 202.064Z" fill="#FBBA18"/>
<path d="M97.9351 199.66C96.2827 199.66 94.6803 199.059 93.4285 197.907C92.1266 196.706 91.3755 195.053 91.2754 193.301C91.2253 191.548 91.8262 189.846 93.0279 188.544C95.5316 185.84 99.7377 185.69 102.442 188.143C105.146 190.647 105.296 194.853 102.842 197.557C101.64 198.859 99.9881 199.61 98.2355 199.71C98.0853 199.66 98.0352 199.66 97.9351 199.66ZM97.9351 187.943C96.5831 187.943 95.1811 188.494 94.1796 189.595C93.2783 190.597 92.7775 191.899 92.8276 193.251C92.8777 194.603 93.4786 195.854 94.48 196.756C95.4815 197.657 96.7834 198.158 98.1354 198.108C99.4873 198.058 100.739 197.457 101.64 196.455C103.543 194.402 103.393 191.198 101.34 189.295C100.389 188.344 99.1368 187.943 97.9351 187.943Z" fill="#1D1D1D"/>
<path d="M377.684 258.775C384.265 251.341 385.637 241.807 380.75 237.482C375.863 233.156 366.567 235.676 359.987 243.11C353.407 250.544 352.034 260.077 356.921 264.403C361.808 268.729 371.104 266.209 377.684 258.775Z" fill="#1D1D1D"/>
</svg>
